<mxfile host="app.diagrams.net" agent="Mozilla/5.0 (Windows NT 10.0; Win64; x64) AppleWebKit/537.36 (KHTML, like Gecko) Chrome/136.0.0.0 Safari/537.36" version="27.0.5">
  <diagram name="第 1 页" id="wymHPZ4tg4deFXSRawVS">
    <mxGraphModel dx="2253" dy="1946" grid="1" gridSize="10" guides="1" tooltips="1" connect="1" arrows="1" fold="1" page="1" pageScale="1" pageWidth="827" pageHeight="1169" math="0" shadow="0">
      <root>
        <mxCell id="0" />
        <mxCell id="1" parent="0" />
        <UserObject label="" mermaidData="{&#xa;  &quot;data&quot;: &quot;stateDiagram-v2\n    [*] --&gt; Pending\n    state Pending {\n        对战初始化\n        决定先手顺序\n        抽初始卡牌（3造物+1松鼠）\n    }\n    Pending --&gt; Init : nextPhase()\n    \n    state Init {\n        处理卡牌进化逻辑\n        切换抽卡阶段\n    }\n    Init --&gt; Draw : nextPhase()\n    \n    state Draw {\n        玩家抽卡阶段\n        30秒未抽卡强制结束\n    }\n    Draw --&gt; Play : nextPhase()\n    \n    state Play {\n        出牌阶段\n        放置卡牌\n        点击铃铛结束回合\n    }\n    Play --&gt; Resolve : nextPhase()\n    \n    state Resolve {\n        攻击结算\n        伤害计算\n        更新中央血条\n    }\n    Resolve --&gt; Init : 未达胜利条件\\n(nextPhase()切换回合)\n    Resolve --&gt; End : 达到胜利条件\\n(screenHP=0/10)\n    \n    state End {\n        显示胜负提示\n        更新全局血量\n        隐藏战斗场景\n    }\n    End --&gt; [*]\n    \n    note left of Resolve\n        结算逻辑：\n        1. 检查飞行/潜水等印记\n        2. 计算溢出伤害\n        3. 更新screenHP\n        4. 触发endPhase()终止条件\n    end note&quot;&#xa;}" id="pg2X5yB_bqXRc8DFgzQ2-29">
          <mxCell style="shape=image;noLabel=1;verticalAlign=top;imageAspect=1;image=data:image/svg+xml,PHN2ZyBhcmlhLXJvbGVkZXNjcmlwdGlvbj0ic3RhdGVEaWFncmFtIiByb2xlPSJncmFwaGljcy1kb2N1bWVudCBkb2N1bWVudCIgdmlld0JveD0iMCAwIDkzNi4wNzgxMjUgMTMyNC4xOTk5NTExNzE4NzUiIHN0eWxlPSJtYXgtd2lkdGg6IDkzNi4wNzgxMjVweDsiIGNsYXNzPSJzdGF0ZWRpYWdyYW0iIHhtbG5zPSJodHRwOi8vd3d3LnczLm9yZy8yMDAwL3N2ZyIgd2lkdGg9IjEwMCUiIGlkPSJnZU1lcm1haWRPdXRwdXQtMTc0NzE4ODExMDU3MyI+PHN0eWxlPiNnZU1lcm1haWRPdXRwdXQtMTc0NzE4ODExMDU3M3tmb250LWZhbWlseToidHJlYnVjaGV0IG1zIix2ZXJkYW5hLGFyaWFsLHNhbnMtc2VyaWY7Zm9udC1zaXplOjE2cHg7ZmlsbDojMDAwMDAwO31Aa2V5ZnJhbWVzIGVkZ2UtYW5pbWF0aW9uLWZyYW1le2Zyb217c3Ryb2tlLWRhc2hvZmZzZXQ6MDt9fUBrZXlmcmFtZXMgZGFzaHt0b3tzdHJva2UtZGFzaG9mZnNldDowO319I2dlTWVybWFpZE91dHB1dC0xNzQ3MTg4MTEwNTczIC5lZGdlLWFuaW1hdGlvbi1zbG93e3N0cm9rZS1kYXNoYXJyYXk6OSw1IWltcG9ydGFudDtzdHJva2UtZGFzaG9mZnNldDo5MDA7YW5pbWF0aW9uOmRhc2ggNTBzIGxpbmVhciBpbmZpbml0ZTtzdHJva2UtbGluZWNhcDpyb3VuZDt9I2dlTWVybWFpZE91dHB1dC0xNzQ3MTg4MTEwNTczIC5lZGdlLWFuaW1hdGlvbi1mYXN0e3N0cm9rZS1kYXNoYXJyYXk6OSw1IWltcG9ydGFudDtzdHJva2UtZGFzaG9mZnNldDo5MDA7YW5pbWF0aW9uOmRhc2ggMjBzIGxpbmVhciBpbmZpbml0ZTtzdHJva2UtbGluZWNhcDpyb3VuZDt9I2dlTWVybWFpZE91dHB1dC0xNzQ3MTg4MTEwNTczIC5lcnJvci1pY29ue2ZpbGw6IzU1MjIyMjt9I2dlTWVybWFpZE91dHB1dC0xNzQ3MTg4MTEwNTczIC5lcnJvci10ZXh0e2ZpbGw6IzU1MjIyMjtzdHJva2U6IzU1MjIyMjt9I2dlTWVybWFpZE91dHB1dC0xNzQ3MTg4MTEwNTczIC5lZGdlLXRoaWNrbmVzcy1ub3JtYWx7c3Ryb2tlLXdpZHRoOjFweDt9I2dlTWVybWFpZE91dHB1dC0xNzQ3MTg4MTEwNTczIC5lZGdlLXRoaWNrbmVzcy10aGlja3tzdHJva2Utd2lkdGg6My41cHg7fSNnZU1lcm1haWRPdXRwdXQtMTc0NzE4ODExMDU3MyAuZWRnZS1wYXR0ZXJuLXNvbGlke3N0cm9rZS1kYXNoYXJyYXk6MDt9I2dlTWVybWFpZE91dHB1dC0xNzQ3MTg4MTEwNTczIC5lZGdlLXRoaWNrbmVzcy1pbnZpc2libGV7c3Ryb2tlLXdpZHRoOjA7ZmlsbDpub25lO30jZ2VNZXJtYWlkT3V0cHV0LTE3NDcxODgxMTA1NzMgLmVkZ2UtcGF0dGVybi1kYXNoZWR7c3Ryb2tlLWRhc2hhcnJheTozO30jZ2VNZXJtYWlkT3V0cHV0LTE3NDcxODgxMTA1NzMgLmVkZ2UtcGF0dGVybi1kb3R0ZWR7c3Ryb2tlLWRhc2hhcnJheToyO30jZ2VNZXJtYWlkT3V0cHV0LTE3NDcxODgxMTA1NzMgLm1hcmtlcntmaWxsOiM2NjY7c3Ryb2tlOiM2NjY7fSNnZU1lcm1haWRPdXRwdXQtMTc0NzE4ODExMDU3MyAubWFya2VyLmNyb3Nze3N0cm9rZTojNjY2O30jZ2VNZXJtYWlkT3V0cHV0LTE3NDcxODgxMTA1NzMgc3Zne2ZvbnQtZmFtaWx5OiJ0cmVidWNoZXQgbXMiLHZlcmRhbmEsYXJpYWwsc2Fucy1zZXJpZjtmb250LXNpemU6MTZweDt9I2dlTWVybWFpZE91dHB1dC0xNzQ3MTg4MTEwNTczIHB7bWFyZ2luOjA7fSNnZU1lcm1haWRPdXRwdXQtMTc0NzE4ODExMDU3MyBkZWZzICNzdGF0ZWRpYWdyYW0tYmFyYkVuZHtmaWxsOiMwMDA7c3Ryb2tlOiMwMDA7fSNnZU1lcm1haWRPdXRwdXQtMTc0NzE4ODExMDU3MyBnLnN0YXRlR3JvdXAgdGV4dHtmaWxsOiM5OTk7c3Ryb2tlOm5vbmU7Zm9udC1zaXplOjEwcHg7fSNnZU1lcm1haWRPdXRwdXQtMTc0NzE4ODExMDU3MyBnLnN0YXRlR3JvdXAgdGV4dHtmaWxsOiMwMDAwMDA7c3Ryb2tlOm5vbmU7Zm9udC1zaXplOjEwcHg7fSNnZU1lcm1haWRPdXRwdXQtMTc0NzE4ODExMDU3MyBnLnN0YXRlR3JvdXAgLnN0YXRlLXRpdGxle2ZvbnQtd2VpZ2h0OmJvbGRlcjtmaWxsOiMxMTExMTE7fSNnZU1lcm1haWRPdXRwdXQtMTc0NzE4ODExMDU3MyBnLnN0YXRlR3JvdXAgcmVjdHtmaWxsOiNlZWU7c3Ryb2tlOiM5OTk7fSNnZU1lcm1haWRPdXRwdXQtMTc0NzE4ODExMDU3MyBnLnN0YXRlR3JvdXAgbGluZXtzdHJva2U6IzY2NjtzdHJva2Utd2lkdGg6MTt9I2dlTWVybWFpZE91dHB1dC0xNzQ3MTg4MTEwNTczIC50cmFuc2l0aW9ue3N0cm9rZTojMDAwO3N0cm9rZS13aWR0aDoxO2ZpbGw6bm9uZTt9I2dlTWVybWFpZE91dHB1dC0xNzQ3MTg4MTEwNTczIC5zdGF0ZUdyb3VwIC5jb21wb3NpdHtmaWxsOiNmZmZmZmY7Ym9yZGVyLWJvdHRvbToxcHg7fSNnZU1lcm1haWRPdXRwdXQtMTc0NzE4ODExMDU3MyAuc3RhdGVHcm91cCAuYWx0LWNvbXBvc2l0e2ZpbGw6I2UwZTBlMDtib3JkZXItYm90dG9tOjFweDt9I2dlTWVybWFpZE91dHB1dC0xNzQ3MTg4MTEwNTczIC5zdGF0ZS1ub3Rle3N0cm9rZTojOTk5O2ZpbGw6IzY2Njt9I2dlTWVybWFpZE91dHB1dC0xNzQ3MTg4MTEwNTczIC5zdGF0ZS1ub3RlIHRleHR7ZmlsbDojZmZmO3N0cm9rZTpub25lO2ZvbnQtc2l6ZToxMHB4O30jZ2VNZXJtYWlkT3V0cHV0LTE3NDcxODgxMTA1NzMgLnN0YXRlTGFiZWwgLmJveHtzdHJva2U6bm9uZTtzdHJva2Utd2lkdGg6MDtmaWxsOiNlZWU7b3BhY2l0eTowLjU7fSNnZU1lcm1haWRPdXRwdXQtMTc0NzE4ODExMDU3MyAuZWRnZUxhYmVsIC5sYWJlbCByZWN0e2ZpbGw6I2VlZTtvcGFjaXR5OjAuNTt9I2dlTWVybWFpZE91dHB1dC0xNzQ3MTg4MTEwNTczIC5lZGdlTGFiZWx7YmFja2dyb3VuZC1jb2xvcjp3aGl0ZTt0ZXh0LWFsaWduOmNlbnRlcjt9I2dlTWVybWFpZE91dHB1dC0xNzQ3MTg4MTEwNTczIC5lZGdlTGFiZWwgcHtiYWNrZ3JvdW5kLWNvbG9yOndoaXRlO30jZ2VNZXJtYWlkT3V0cHV0LTE3NDcxODgxMTA1NzMgLmVkZ2VMYWJlbCByZWN0e29wYWNpdHk6MC41O2JhY2tncm91bmQtY29sb3I6d2hpdGU7ZmlsbDp3aGl0ZTt9I2dlTWVybWFpZE91dHB1dC0xNzQ3MTg4MTEwNTczIC5lZGdlTGFiZWwgLmxhYmVsIHRleHR7ZmlsbDojMDAwMDAwO30jZ2VNZXJtYWlkT3V0cHV0LTE3NDcxODgxMTA1NzMgLmxhYmVsIGRpdiAuZWRnZUxhYmVse2NvbG9yOiMwMDAwMDA7fSNnZU1lcm1haWRPdXRwdXQtMTc0NzE4ODExMDU3MyAuc3RhdGVMYWJlbCB0ZXh0e2ZpbGw6IzExMTExMTtmb250LXNpemU6MTBweDtmb250LXdlaWdodDpib2xkO30jZ2VNZXJtYWlkT3V0cHV0LTE3NDcxODgxMTA1NzMgLm5vZGUgY2lyY2xlLnN0YXRlLXN0YXJ0e2ZpbGw6IzIyMjtzdHJva2U6IzIyMjt9I2dlTWVybWFpZE91dHB1dC0xNzQ3MTg4MTEwNTczIC5ub2RlIC5mb3JrLWpvaW57ZmlsbDojMjIyO3N0cm9rZTojMjIyO30jZ2VNZXJtYWlkT3V0cHV0LTE3NDcxODgxMTA1NzMgLm5vZGUgY2lyY2xlLnN0YXRlLWVuZHtmaWxsOmhzbCgwLCAwJSwgODMuMzMzMzMzMzMzMyUpO3N0cm9rZTojZmZmZmZmO3N0cm9rZS13aWR0aDoxLjU7fSNnZU1lcm1haWRPdXRwdXQtMTc0NzE4ODExMDU3MyAuZW5kLXN0YXRlLWlubmVye2ZpbGw6I2ZmZmZmZjtzdHJva2Utd2lkdGg6MS41O30jZ2VNZXJtYWlkT3V0cHV0LTE3NDcxODgxMTA1NzMgLm5vZGUgcmVjdHtmaWxsOiNlZWU7c3Ryb2tlOiMwMDA7c3Ryb2tlLXdpZHRoOjFweDt9I2dlTWVybWFpZE91dHB1dC0xNzQ3MTg4MTEwNTczIC5ub2RlIHBvbHlnb257ZmlsbDojZWVlO3N0cm9rZTojMDAwO3N0cm9rZS13aWR0aDoxcHg7fSNnZU1lcm1haWRPdXRwdXQtMTc0NzE4ODExMDU3MyAjc3RhdGVkaWFncmFtLWJhcmJFbmR7ZmlsbDojNjY2O30jZ2VNZXJtYWlkT3V0cHV0LTE3NDcxODgxMTA1NzMgLnN0YXRlZGlhZ3JhbS1jbHVzdGVyIHJlY3R7ZmlsbDojZWVlO3N0cm9rZTojMDAwO3N0cm9rZS13aWR0aDoxcHg7fSNnZU1lcm1haWRPdXRwdXQtMTc0NzE4ODExMDU3MyAuY2x1c3Rlci1sYWJlbCwjZ2VNZXJtYWlkT3V0cHV0LTE3NDcxODgxMTA1NzMgLm5vZGVMYWJlbHtjb2xvcjojMTExMTExO30jZ2VNZXJtYWlkT3V0cHV0LTE3NDcxODgxMTA1NzMgLnN0YXRlZGlhZ3JhbS1jbHVzdGVyIHJlY3Qub3V0ZXJ7cng6NXB4O3J5OjVweDt9I2dlTWVybWFpZE91dHB1dC0xNzQ3MTg4MTEwNTczIC5zdGF0ZWRpYWdyYW0tc3RhdGUgLmRpdmlkZXJ7c3Ryb2tlOiMwMDA7fSNnZU1lcm1haWRPdXRwdXQtMTc0NzE4ODExMDU3MyAuc3RhdGVkaWFncmFtLXN0YXRlIC50aXRsZS1zdGF0ZXtyeDo1cHg7cnk6NXB4O30jZ2VNZXJtYWlkT3V0cHV0LTE3NDcxODgxMTA1NzMgLnN0YXRlZGlhZ3JhbS1jbHVzdGVyLnN0YXRlZGlhZ3JhbS1jbHVzdGVyIC5pbm5lcntmaWxsOiNmZmZmZmY7fSNnZU1lcm1haWRPdXRwdXQtMTc0NzE4ODExMDU3MyAuc3RhdGVkaWFncmFtLWNsdXN0ZXIuc3RhdGVkaWFncmFtLWNsdXN0ZXItYWx0IC5pbm5lcntmaWxsOiNmNGY0ZjQ7fSNnZU1lcm1haWRPdXRwdXQtMTc0NzE4ODExMDU3MyAuc3RhdGVkaWFncmFtLWNsdXN0ZXIgLmlubmVye3J4OjA7cnk6MDt9I2dlTWVybWFpZE91dHB1dC0xNzQ3MTg4MTEwNTczIC5zdGF0ZWRpYWdyYW0tc3RhdGUgcmVjdC5iYXNpY3tyeDo1cHg7cnk6NXB4O30jZ2VNZXJtYWlkT3V0cHV0LTE3NDcxODgxMTA1NzMgLnN0YXRlZGlhZ3JhbS1zdGF0ZSByZWN0LmRpdmlkZXJ7c3Ryb2tlLWRhc2hhcnJheToxMCwxMDtmaWxsOiNmNGY0ZjQ7fSNnZU1lcm1haWRPdXRwdXQtMTc0NzE4ODExMDU3MyAubm90ZS1lZGdle3N0cm9rZS1kYXNoYXJyYXk6NTt9I2dlTWVybWFpZE91dHB1dC0xNzQ3MTg4MTEwNTczIC5zdGF0ZWRpYWdyYW0tbm90ZSByZWN0e2ZpbGw6IzY2NjtzdHJva2U6Izk5OTtzdHJva2Utd2lkdGg6MXB4O3J4OjA7cnk6MDt9I2dlTWVybWFpZE91dHB1dC0xNzQ3MTg4MTEwNTczIC5zdGF0ZWRpYWdyYW0tbm90ZSByZWN0e2ZpbGw6IzY2NjtzdHJva2U6Izk5OTtzdHJva2Utd2lkdGg6MXB4O3J4OjA7cnk6MDt9I2dlTWVybWFpZE91dHB1dC0xNzQ3MTg4MTEwNTczIC5zdGF0ZWRpYWdyYW0tbm90ZSB0ZXh0e2ZpbGw6I2ZmZjt9I2dlTWVybWFpZE91dHB1dC0xNzQ3MTg4MTEwNTczIC5zdGF0ZWRpYWdyYW0tbm90ZSAubm9kZUxhYmVse2NvbG9yOiNmZmY7fSNnZU1lcm1haWRPdXRwdXQtMTc0NzE4ODExMDU3MyAuc3RhdGVkaWFncmFtIC5lZGdlTGFiZWx7Y29sb3I6cmVkO30jZ2VNZXJtYWlkT3V0cHV0LTE3NDcxODgxMTA1NzMgI2RlcGVuZGVuY3lTdGFydCwjZ2VNZXJtYWlkT3V0cHV0LTE3NDcxODgxMTA1NzMgI2RlcGVuZGVuY3lFbmR7ZmlsbDojNjY2O3N0cm9rZTojNjY2O3N0cm9rZS13aWR0aDoxO30jZ2VNZXJtYWlkT3V0cHV0LTE3NDcxODgxMTA1NzMgLnN0YXRlZGlhZ3JhbVRpdGxlVGV4dHt0ZXh0LWFuY2hvcjptaWRkbGU7Zm9udC1zaXplOjE4cHg7ZmlsbDojMDAwMDAwO30jZ2VNZXJtYWlkT3V0cHV0LTE3NDcxODgxMTA1NzMgOnJvb3R7LS1tZXJtYWlkLWZvbnQtZmFtaWx5OiJ0cmVidWNoZXQgbXMiLHZlcmRhbmEsYXJpYWwsc2Fucy1zZXJpZjt9PC9zdHlsZT48Zz48ZGVmcz48bWFya2VyIG9yaWVudD0iYXV0byIgbWFya2VyVW5pdHM9InVzZXJTcGFjZU9uVXNlIiBtYXJrZXJIZWlnaHQ9IjE0IiBtYXJrZXJXaWR0aD0iMjAiIHJlZlk9IjciIHJlZlg9IjE5IiBpZD0iZ2VNZXJtYWlkT3V0cHV0LTE3NDcxODgxMTA1NzNfc3RhdGVEaWFncmFtLWJhcmJFbmQiPjxwYXRoIGQ9Ik0gMTksNyBMOSwxMyBMMTQsNyBMOSwxIFoiPjwvcGF0aD48L21hcmtlcj48L2RlZnM+PGcgY2xhc3M9InJvb3QiPjxnIGNsYXNzPSJjbHVzdGVycyI+PGcgaWQ9IlJlc29sdmUtLS0tcGFyZW50IiBjbGFzcz0ibm90ZS1jbHVzdGVyIj48cmVjdCBmaWxsPSJub25lIiBoZWlnaHQ9IjIwMCIgd2lkdGg9IjI5My43NSIgeT0iNjU2LjU5OTk5ODQ3NDEyMTEiIHg9IjUxNyI+PC9yZWN0PjwvZz48L2c+PGcgY2xhc3M9ImVkZ2VQYXRocyI+PHBhdGggbWFya2VyLWVuZD0idXJsKCNnZU1lcm1haWRPdXRwdXQtMTc0NzE4ODExMDU3M19zdGF0ZURpYWdyYW0tYmFyYkVuZCkiIHN0eWxlPSJmaWxsOm5vbmU7IiBjbGFzcz0iZWRnZS10aGlja25lc3Mtbm9ybWFsIGVkZ2UtcGF0dGVybi1zb2xpZCB0cmFuc2l0aW9uIiBpZD0iZWRnZTAiIGQ9Ik01MzcuODc1LDIyTDUzNy44NzUsMjYuMTY3QzUzNy44NzUsMzAuMzMzLDUzNy44NzUsMzguNjY3LDUzNy44NzUsNDdDNTM3Ljg3NSw1NS4zMzMsNTM3Ljg3NSw2My42NjcsNTM3Ljg3NSw2Ny44MzNMNTM3Ljg3NSw3MiI+PC9wYXRoPjxwYXRoIG1hcmtlci1lbmQ9InVybCgjZ2VNZXJtYWlkT3V0cHV0LTE3NDcxODgxMTA1NzNfc3RhdGVEaWFncmFtLWJhcmJFbmQpIiBzdHlsZT0iZmlsbDpub25lOyIgY2xhc3M9ImVkZ2UtdGhpY2tuZXNzLW5vcm1hbCBlZGdlLXBhdHRlcm4tc29saWQgdHJhbnNpdGlvbiIgaWQ9ImVkZ2UxIiBkPSJNNTM3Ljg3NSwxODhMNTM3Ljg3NSwxOTQuMDgzQzUzNy44NzUsMjAwLjE2Nyw1MzcuODc1LDIxMi4zMzMsNTM3Ljg3NSwyMjQuNUM1MzcuODc1LDIzNi42NjcsNTM3Ljg3NSwyNDguODMzLDUzNy44NzUsMjU0LjkxN0w1MzcuODc1LDI2MSI+PC9wYXRoPjxwYXRoIG1hcmtlci1lbmQ9InVybCgjZ2VNZXJtYWlkT3V0cHV0LTE3NDcxODgxMTA1NzNfc3RhdGVEaWFncmFtLWJhcmJFbmQpIiBzdHlsZT0iZmlsbDpub25lOyIgY2xhc3M9ImVkZ2UtdGhpY2tuZXNzLW5vcm1hbCBlZGdlLXBhdHRlcm4tc29saWQgdHJhbnNpdGlvbiIgaWQ9ImVkZ2UyIiBkPSJNMzU4LjEyMSwzNzdMMzM5LjI2OCwzODMuMDgzQzMyMC40MTQsMzg5LjE2NywyODIuNzA3LDQwMS4zMzMsMjYzLjg1NCw0MTMuNUMyNDUsNDI1LjY2NywyNDUsNDM3LjgzMywyNDUsNDQzLjkxN0wyNDUsNDUwIj48L3BhdGg+PHBhdGggbWFya2VyLWVuZD0idXJsKCNnZU1lcm1haWRPdXRwdXQtMTc0NzE4ODExMDU3M19zdGF0ZURpYWdyYW0tYmFyYkVuZCkiIHN0eWxlPSJmaWxsOm5vbmU7IiBjbGFzcz0iZWRnZS10aGlja25lc3Mtbm9ybWFsIGVkZ2UtcGF0dGVybi1zb2xpZCB0cmFuc2l0aW9uIiBpZD0iZWRnZTMiIGQ9Ik0yNDUsNTY2TDI0NSw1NzMuNTVDMjQ1LDU4MS4xLDI0NSw1OTYuMiwyNDUsNjExLjNDMjQ1LDYyNi40LDI0NSw2NDEuNSwyNDUsNjU2LjA1QzI0NSw2NzAuNiwyNDUsNjg0LjYsMjQ1LDY5MS42TDI0NSw2OTguNiI+PC9wYXRoPjxwYXRoIG1hcmtlci1lbmQ9InVybCgjZ2VNZXJtYWlkT3V0cHV0LTE3NDcxODgxMTA1NzNfc3RhdGVEaWFncmFtLWJhcmJFbmQpIiBzdHlsZT0iZmlsbDpub25lOyIgY2xhc3M9ImVkZ2UtdGhpY2tuZXNzLW5vcm1hbCBlZGdlLXBhdHRlcm4tc29saWQgdHJhbnNpdGlvbiIgaWQ9ImVkZ2U0IiBkPSJNMjQ1LDgxNC42TDI0NSw4MjEuNkMyNDUsODI4LjYsMjQ1LDg0Mi42LDI0NSw4NTUuNjgzQzI0NSw4NjguNzY3LDI0NSw4ODAuOTMzLDI3Ny45NzksODk0LjQ1N0MzMTAuOTU4LDkwNy45OCwzNzYuOTE3LDkyMi44NjEsNDA5Ljg5Niw5MzAuMzAxTDQ0Mi44NzUsOTM3Ljc0MSI+PC9wYXRoPjxwYXRoIG1hcmtlci1lbmQ9InVybCgjZ2VNZXJtYWlkT3V0cHV0LTE3NDcxODgxMTA1NzNfc3RhdGVEaWFncmFtLWJhcmJFbmQpIiBzdHlsZT0iZmlsbDpub25lOyIgY2xhc3M9ImVkZ2UtdGhpY2tuZXNzLW5vcm1hbCBlZGdlLXBhdHRlcm4tc29saWQgdHJhbnNpdGlvbiIgaWQ9ImVkZ2U1IiBkPSJNNzY2LjI5Niw5MjkuNkw3NzcuMDM4LDkyMy41MTdDNzg3Ljc4LDkxNy40MzMsODA5LjI2NSw5MDUuMjY3LDgyMC4wMDgsODkzLjFDODMwLjc1LDg4MC45MzMsODMwLjc1LDg2OC43NjcsODMwLjc1LDg0Ni4wMTdDODMwLjc1LDgyMy4yNjcsODMwLjc1LDc4OS45MzMsODMwLjc1LDc1Ni42QzgzMC43NSw3MjMuMjY3LDgzMC43NSw2ODkuOTMzLDgzMC43NSw2NjUuNzE3QzgzMC43NSw2NDEuNSw4MzAuNzUsNjI2LjQsODMwLjc1LDYwMS42MzNDODMwLjc1LDU3Ni44NjcsODMwLjc1LDU0Mi40MzMsODMwLjc1LDUwOS40NjdDODMwLjc1LDQ3Ni41LDgzMC43NSw0NDUsODExLjg5Niw0MjMuMTY3Qzc5My4wNDMsNDAxLjMzMyw3NTUuMzM2LDM4OS4xNjcsNzM2LjQ4MiwzODMuMDgzTDcxNy42MjksMzc3Ij48L3BhdGg+PHBhdGggbWFya2VyLWVuZD0idXJsKCNnZU1lcm1haWRPdXRwdXQtMTc0NzE4ODExMDU3M19zdGF0ZURpYWdyYW0tYmFyYkVuZCkiIHN0eWxlPSJmaWxsOm5vbmU7IiBjbGFzcz0iZWRnZS10aGlja25lc3Mtbm9ybWFsIGVkZ2UtcGF0dGVybi1zb2xpZCB0cmFuc2l0aW9uIiBpZD0iZWRnZTYiIGQ9Ik02NjMuODc1LDEwNDUuNkw2NjMuODc1LDEwNTMuMTVDNjYzLjg3NSwxMDYwLjcsNjYzLjg3NSwxMDc1LjgsNjYzLjg3NSwxMDkwLjlDNjYzLjg3NSwxMTA2LDY2My44NzUsMTEyMS4xLDY2My44NzUsMTEyOC42NUw2NjMuODc1LDExMzYuMiI+PC9wYXRoPjxwYXRoIG1hcmtlci1lbmQ9InVybCgjZ2VNZXJtYWlkT3V0cHV0LTE3NDcxODgxMTA1NzNfc3RhdGVEaWFncmFtLWJhcmJFbmQpIiBzdHlsZT0iZmlsbDpub25lOyIgY2xhc3M9ImVkZ2UtdGhpY2tuZXNzLW5vcm1hbCBlZGdlLXBhdHRlcm4tc29saWQgdHJhbnNpdGlvbiIgaWQ9ImVkZ2U3IiBkPSJNNjYzLjg3NSwxMjUyLjJMNjYzLjg3NSwxMjU2LjM2N0M2NjMuODc1LDEyNjAuNTMzLDY2My44NzUsMTI2OC44NjcsNjYzLjg3NSwxMjc3LjJDNjYzLjg3NSwxMjg1LjUzMyw2NjMuODc1LDEyOTMuODY3LDY2My44NzUsMTI5OC4wMzNMNjYzLjg3NSwxMzAyLjIiPjwvcGF0aD48cGF0aCBzdHlsZT0iZmlsbDpub25lOyIgY2xhc3M9ImVkZ2UtdGhpY2tuZXNzLW5vcm1hbCBlZGdlLXBhdHRlcm4tc29saWQgdHJhbnNpdGlvbiBub3RlLWVkZ2UiIGlkPSJSZXNvbHZlLS0tLW5vdGUtOC1SZXNvbHZlIiBkPSJNNjYzLjg3NSw4MzEuNkw2NjMuODc1LDgzNS43NjdDNjYzLjg3NSw4MzkuOTMzLDY2My44NzUsODQ4LjI2Nyw2NjMuODc1LDg1OC41MTdDNjYzLjg3NSw4NjguNzY3LDY2My44NzUsODgwLjkzMyw2NjMuODc1LDg5My4xQzY2My44NzUsOTA1LjI2Nyw2NjMuODc1LDkxNy40MzMsNjYzLjg3NSw5MjMuNTE3TDY2My44NzUsOTI5LjYiPjwvcGF0aD48L2c+PGcgY2xhc3M9ImVkZ2VMYWJlbHMiPjxnPjxyZWN0IHN0eWxlPSJzdHJva2U6IG5vbmUiIGNsYXNzPSJiYWNrZ3JvdW5kIj48L3JlY3Q+PC9nPjxnPjxyZWN0IHN0eWxlPSJzdHJva2U6IG5vbmUiIGNsYXNzPSJiYWNrZ3JvdW5kIj48L3JlY3Q+PC9nPjxnPjxyZWN0IHN0eWxlPSJzdHJva2U6IG5vbmUiIGNsYXNzPSJiYWNrZ3JvdW5kIj48L3JlY3Q+PC9nPjxnIGNsYXNzPSJlZGdlTGFiZWwiPjxnIHRyYW5zZm9ybT0idHJhbnNsYXRlKDAsIDApIiBjbGFzcz0ibGFiZWwiPjx0ZXh0IHk9Ii0xMC4xIj48dHNwYW4gZHk9IjEuMWVtIiB5PSItMC4xZW0iIHg9IjAiIGNsYXNzPSJ0ZXh0LW91dGVyLXRzcGFuIj48L3RzcGFuPjwvdGV4dD48L2c+PC9nPjxnIHRyYW5zZm9ybT0idHJhbnNsYXRlKDUzNy44NzUsIDIyNC41KSIgY2xhc3M9ImVkZ2VMYWJlbCI+PGcgdHJhbnNmb3JtPSJ0cmFuc2xhdGUoLTQ0LjExMzI4MTI1LCAtMTEuNSkiIGNsYXNzPSJsYWJlbCI+PGc+PHJlY3QgaGVpZ2h0PSIyMyIgd2lkdGg9Ijg4LjIyNjU2MjUiIHk9Ii0xIiB4PSItMiIgc3R5bGU9IiIgY2xhc3M9ImJhY2tncm91bmQiPjwvcmVjdD48dGV4dCBzdHlsZT0iIiB5PSItMTAuMSI+PHRzcGFuIGR5PSIxLjFlbSIgeT0iLTAuMWVtIiB4PSIwIiBjbGFzcz0idGV4dC1vdXRlci10c3BhbiI+PHRzcGFuIGZvbnQtd2VpZ2h0PSJub3JtYWwiIGNsYXNzPSJ0ZXh0LWlubmVyLXRzcGFuIiBmb250LXN0eWxlPSJub3JtYWwiPm5leHRQaGFzZSgpPC90c3Bhbj48L3RzcGFuPjwvdGV4dD48L2c+PC9nPjwvZz48ZyB0cmFuc2Zvcm09InRyYW5zbGF0ZSgyNDUsIDQxMy41KSIgY2xhc3M9ImVkZ2VMYWJlbCI+PGcgdHJhbnNmb3JtPSJ0cmFuc2xhdGUoLTQ0LjExMzI4MTI1LCAtMTEuNSkiIGNsYXNzPSJsYWJlbCI+PGc+PHJlY3QgaGVpZ2h0PSIyMyIgd2lkdGg9Ijg4LjIyNjU2MjUiIHk9Ii0xIiB4PSItMiIgc3R5bGU9IiIgY2xhc3M9ImJhY2tncm91bmQiPjwvcmVjdD48dGV4dCBzdHlsZT0iIiB5PSItMTAuMSI+PHRzcGFuIGR5PSIxLjFlbSIgeT0iLTAuMWVtIiB4PSIwIiBjbGFzcz0idGV4dC1vdXRlci10c3BhbiI+PHRzcGFuIGZvbnQtd2VpZ2h0PSJub3JtYWwiIGNsYXNzPSJ0ZXh0LWlubmVyLXRzcGFuIiBmb250LXN0eWxlPSJub3JtYWwiPm5leHRQaGFzZSgpPC90c3Bhbj48L3RzcGFuPjwvdGV4dD48L2c+PC9nPjwvZz48ZyB0cmFuc2Zvcm09InRyYW5zbGF0ZSgyNDUsIDYxMS4yOTk5OTkyMzcwNjA1KSIgY2xhc3M9ImVkZ2VMYWJlbCI+PGcgdHJhbnNmb3JtPSJ0cmFuc2xhdGUoLTQ0LjExMzI4MTI1LCAtMTEuNSkiIGNsYXNzPSJsYWJlbCI+PGc+PHJlY3QgaGVpZ2h0PSIyMyIgd2lkdGg9Ijg4LjIyNjU2MjUiIHk9Ii0xIiB4PSItMiIgc3R5bGU9IiIgY2xhc3M9ImJhY2tncm91bmQiPjwvcmVjdD48dGV4dCBzdHlsZT0iIiB5PSItMTAuMSI+PHRzcGFuIGR5PSIxLjFlbSIgeT0iLTAuMWVtIiB4PSIwIiBjbGFzcz0idGV4dC1vdXRlci10c3BhbiI+PHRzcGFuIGZvbnQtd2VpZ2h0PSJub3JtYWwiIGNsYXNzPSJ0ZXh0LWlubmVyLXRzcGFuIiBmb250LXN0eWxlPSJub3JtYWwiPm5leHRQaGFzZSgpPC90c3Bhbj48L3RzcGFuPjwvdGV4dD48L2c+PC9nPjwvZz48ZyB0cmFuc2Zvcm09InRyYW5zbGF0ZSgyNDUsIDg5My4wOTk5OTg0NzQxMjExKSIgY2xhc3M9ImVkZ2VMYWJlbCI+PGcgdHJhbnNmb3JtPSJ0cmFuc2xhdGUoLTQ0LjExMzI4MTI1LCAtMTEuNSkiIGNsYXNzPSJsYWJlbCI+PGc+PHJlY3QgaGVpZ2h0PSIyMyIgd2lkdGg9Ijg4LjIyNjU2MjUiIHk9Ii0xIiB4PSItMiIgc3R5bGU9IiIgY2xhc3M9ImJhY2tncm91bmQiPjwvcmVjdD48dGV4dCBzdHlsZT0iIiB5PSItMTAuMSI+PHRzcGFuIGR5PSIxLjFlbSIgeT0iLTAuMWVtIiB4PSIwIiBjbGFzcz0idGV4dC1vdXRlci10c3BhbiI+PHRzcGFuIGZvbnQtd2VpZ2h0PSJub3JtYWwiIGNsYXNzPSJ0ZXh0LWlubmVyLXRzcGFuIiBmb250LXN0eWxlPSJub3JtYWwiPm5leHRQaGFzZSgpPC90c3Bhbj48L3RzcGFuPjwvdGV4dD48L2c+PC9nPjwvZz48ZyB0cmFuc2Zvcm09InRyYW5zbGF0ZSg4MzAuNzUsIDYxMS4yOTk5OTkyMzcwNjA1KSIgY2xhc3M9ImVkZ2VMYWJlbCI+PGcgdHJhbnNmb3JtPSJ0cmFuc2xhdGUoLTk5LjMyODEyNSwgLTIwLjI5OTk5OTIzNzA2MDU0NykiIGNsYXNzPSJsYWJlbCI+PGc+PHJlY3QgaGVpZ2h0PSI0MC41OTk5OTg0NzQxMjEwOTQiIHdpZHRoPSIxOTguNjU2MjUiIHk9Ii0xIiB4PSItMiIgc3R5bGU9IiIgY2xhc3M9ImJhY2tncm91bmQiPjwvcmVjdD48dGV4dCBzdHlsZT0iIiB5PSItMTAuMSI+PHRzcGFuIGR5PSIxLjFlbSIgeT0iLTAuMWVtIiB4PSIwIiBjbGFzcz0idGV4dC1vdXRlci10c3BhbiI+PHRzcGFuIGZvbnQtd2VpZ2h0PSJub3JtYWwiIGNsYXNzPSJ0ZXh0LWlubmVyLXRzcGFuIiBmb250LXN0eWxlPSJub3JtYWwiPuacqui+vuiDnOWIqeadoeS7tlxuKG5leHRQaGFzZSg8L3RzcGFuPjwvdHNwYW4+PHRzcGFuIGR5PSIxLjFlbSIgeT0iMWVtIiB4PSIwIiBjbGFzcz0idGV4dC1vdXRlci10c3BhbiI+PHRzcGFuIGZvbnQtd2VpZ2h0PSJub3JtYWwiIGNsYXNzPSJ0ZXh0LWlubmVyLXRzcGFuIiBmb250LXN0eWxlPSJub3JtYWwiPinliIfmjaLlm57lkIgpPC90c3Bhbj48L3RzcGFuPjwvdGV4dD48L2c+PC9nPjwvZz48ZyB0cmFuc2Zvcm09InRyYW5zbGF0ZSg2NjMuODc1LCAxMDkwLjg5OTk5NzcxMTE4MTYpIiBjbGFzcz0iZWRnZUxhYmVsIj48ZyB0cmFuc2Zvcm09InRyYW5zbGF0ZSgtMTAxLjk0OTIxODc1LCAtMjAuMjk5OTk5MjM3MDYwNTQ3KSIgY2xhc3M9ImxhYmVsIj48Zz48cmVjdCBoZWlnaHQ9IjQwLjU5OTk5ODQ3NDEyMTA5NCIgd2lkdGg9IjIwMy44OTg0Mzc1IiB5PSItMSIgeD0iLTIiIHN0eWxlPSIiIGNsYXNzPSJiYWNrZ3JvdW5kIj48L3JlY3Q+PHRleHQgc3R5bGU9IiIgeT0iLTEwLjEiPjx0c3BhbiBkeT0iMS4xZW0iIHk9Ii0wLjFlbSIgeD0iMCIgY2xhc3M9InRleHQtb3V0ZXItdHNwYW4iPjx0c3BhbiBmb250LXdlaWdodD0ibm9ybWFsIiBjbGFzcz0idGV4dC1pbm5lci10c3BhbiIgZm9udC1zdHlsZT0ibm9ybWFsIj7ovr7liLDog5zliKnmnaHku7ZcbihzY3JlZW5IUD0wPC90c3Bhbj48L3RzcGFuPjx0c3BhbiBkeT0iMS4xZW0iIHk9IjFlbSIgeD0iMCIgY2xhc3M9InRleHQtb3V0ZXItdHNwYW4iPjx0c3BhbiBmb250LXdlaWdodD0ibm9ybWFsIiBjbGFzcz0idGV4dC1pbm5lci10c3BhbiIgZm9udC1zdHlsZT0ibm9ybWFsIj4vMTApPC90c3Bhbj48L3RzcGFuPjwvdGV4dD48L2c+PC9nPjwvZz48ZyBjbGFzcz0iZWRnZUxhYmVsIj48ZyB0cmFuc2Zvcm09InRyYW5zbGF0ZSgwLCAwKSIgY2xhc3M9ImxhYmVsIj48dGV4dCB5PSItMTAuMSI+PHRzcGFuIGR5PSIxLjFlbSIgeT0iLTAuMWVtIiB4PSIwIiBjbGFzcz0idGV4dC1vdXRlci10c3BhbiI+PC90c3Bhbj48L3RleHQ+PC9nPjwvZz48ZyBjbGFzcz0iZWRnZUxhYmVsIj48ZyB0cmFuc2Zvcm09InRyYW5zbGF0ZSgwLCAwKSIgY2xhc3M9ImxhYmVsIj48dGV4dCB5PSItMTAuMSI+PHRzcGFuIGR5PSIxLjFlbSIgeT0iLTAuMWVtIiB4PSIwIiBjbGFzcz0idGV4dC1vdXRlci10c3BhbiI+PC90c3Bhbj48L3RleHQ+PC9nPjwvZz48L2c+PGcgY2xhc3M9Im5vZGVzIj48ZyB0cmFuc2Zvcm09InRyYW5zbGF0ZSg1MzcuODc1LCAxNSkiIGlkPSJzdGF0ZS1yb290X3N0YXJ0LTAiIGNsYXNzPSJub2RlIGRlZmF1bHQiPjxjaXJjbGUgaGVpZ2h0PSIxNCIgd2lkdGg9IjE0IiByPSI3IiBjbGFzcz0ic3RhdGUtc3RhcnQiPjwvY2lyY2xlPjwvZz48ZyB0cmFuc2Zvcm09InRyYW5zbGF0ZSgyMzIuODc1LCA2NCkiIGNsYXNzPSJyb290Ij48ZyBjbGFzcz0iY2x1c3RlcnMiPjxnIGRhdGEtbG9vaz0iY2xhc3NpYyIgZGF0YS1pZD0iUGVuZGluZyIgaWQ9IlBlbmRpbmciIGNsYXNzPSJzdGF0ZWRpYWdyYW0tc3RhdGUgc3RhdGVkaWFncmFtLWNsdXN0ZXIiPjxnPjxyZWN0IGRhdGEtbG9vaz0iY2xhc3NpYyIgaGVpZ2h0PSIxMTUiIHdpZHRoPSI1OTQiIHk9IjgiIHg9IjgiIGNsYXNzPSJvdXRlciI+PC9yZWN0PjwvZz48ZyB0cmFuc2Zvcm09InRyYW5zbGF0ZSgyNzcuMDU0Njg3NSwgNikiIGNsYXNzPSJjbHVzdGVyLWxhYmVsIj48dGV4dCBzdHlsZT0iIj48dHNwYW4gY2xhc3M9InJvdyIgeD0iMCIgZHk9IjFlbSIgeG1sOnNwYWNlPSJwcmVzZXJ2ZSI+UGVuZGluZzwvdHNwYW4+PC90ZXh0PjwvZz48cmVjdCBoZWlnaHQ9IjkwIiB3aWR0aD0iNTk0IiB5PSIyOSIgeD0iOCIgY2xhc3M9ImlubmVyIj48L3JlY3Q+PC9nPjwvZz48ZyBjbGFzcz0iZWRnZVBhdGhzIj48L2c+PGcgY2xhc3M9ImVkZ2VMYWJlbHMiPjwvZz48ZyBjbGFzcz0ibm9kZXMiPjxnIHRyYW5zZm9ybT0idHJhbnNsYXRlKDkxLCA2NS41KSIgaWQ9InN0YXRlLeWvueaImOWIneWni+WMli0xIiBjbGFzcz0ibm9kZSAgc3RhdGVkaWFncmFtLXN0YXRlIj48cmVjdCBoZWlnaHQ9IjQwIiB3aWR0aD0iOTYiIHk9Ii0yMCIgeD0iLTQ4IiByeT0iNSIgcng9IjUiIHN0eWxlPSIiIGNsYXNzPSJiYXNpYyBsYWJlbC1jb250YWluZXIiPjwvcmVjdD48ZyB0cmFuc2Zvcm09InRyYW5zbGF0ZSgtNDAsIC0xMikiIHN0eWxlPSIiIGNsYXNzPSJsYWJlbCI+PHJlY3Q+PC9yZWN0Pjxmb3JlaWduT2JqZWN0IGhlaWdodD0iMjQiIHdpZHRoPSI4MCI+PGRpdiBzdHlsZT0iZGlzcGxheTogdGFibGUtY2VsbDsgd2hpdGUtc3BhY2U6IG5vd3JhcDsgbGluZS1oZWlnaHQ6IDEuNTsgbWF4LXdpZHRoOiAyMDBweDsgdGV4dC1hbGlnbjogY2VudGVyOyIgeG1sbnM9Imh0dHA6Ly93d3cudzMub3JnLzE5OTkveGh0bWwiPjxzcGFuIGNsYXNzPSJub2RlTGFiZWwiPjxwPuWvueaImOWIneWni+WMljwvcD48L3NwYW4+PC9kaXY+PC9mb3JlaWduT2JqZWN0PjwvZz48L2c+PGcgdHJhbnNmb3JtPSJ0cmFuc2xhdGUoMjQ1LCA2NS41KSIgaWQ9InN0YXRlLeWGs+WumuWFiOaJi+mhuuW6jy0xIiBjbGFzcz0ibm9kZSAgc3RhdGVkaWFncmFtLXN0YXRlIj48cmVjdCBoZWlnaHQ9IjQwIiB3aWR0aD0iMTEyIiB5PSItMjAiIHg9Ii01NiIgcnk9IjUiIHJ4PSI1IiBzdHlsZT0iIiBjbGFzcz0iYmFzaWMgbGFiZWwtY29udGFpbmVyIj48L3JlY3Q+PGcgdHJhbnNmb3JtPSJ0cmFuc2xhdGUoLTQ4LCAtMTIpIiBzdHlsZT0iIiBjbGFzcz0ibGFiZWwiPjxyZWN0PjwvcmVjdD48Zm9yZWlnbk9iamVjdCBoZWlnaHQ9IjI0IiB3aWR0aD0iOTYiPjxkaXYgc3R5bGU9ImRpc3BsYXk6IHRhYmxlLWNlbGw7IHdoaXRlLXNwYWNlOiBub3dyYXA7IGxpbmUtaGVpZ2h0OiAxLjU7IG1heC13aWR0aDogMjAwcHg7IHRleHQtYWxpZ246IGNlbnRlcjsiIHhtbG5zPSJodHRwOi8vd3d3LnczLm9yZy8xOTk5L3hodG1sIj48c3BhbiBjbGFzcz0ibm9kZUxhYmVsIj48cD7lhrPlrprlhYjmiYvpobrluo88L3A+PC9zcGFuPjwvZGl2PjwvZm9yZWlnbk9iamVjdD48L2c+PC9nPjxnIHRyYW5zZm9ybT0idHJhbnNsYXRlKDQ1OSwgNjUuNSkiIGlkPSJzdGF0ZS3mir3liJ3lp4vljaHniYzvvIgz6YCg54mpKzHmnb7pvKDvvIktMSIgY2xhc3M9Im5vZGUgIHN0YXRlZGlhZ3JhbS1zdGF0ZSI+PHJlY3QgaGVpZ2h0PSI0MCIgd2lkdGg9IjIxNiIgeT0iLTIwIiB4PSItMTA4IiByeT0iNSIgcng9IjUiIHN0eWxlPSIiIGNsYXNzPSJiYXNpYyBsYWJlbC1jb250YWluZXIiPjwvcmVjdD48ZyB0cmFuc2Zvcm09InRyYW5zbGF0ZSgtMTAwLCAtMTIpIiBzdHlsZT0iIiBjbGFzcz0ibGFiZWwiPjxyZWN0PjwvcmVjdD48Zm9yZWlnbk9iamVjdCBoZWlnaHQ9IjI0IiB3aWR0aD0iMjAwIj48ZGl2IHN0eWxlPSJkaXNwbGF5OiB0YWJsZTsgd2hpdGUtc3BhY2U6IGJyZWFrLXNwYWNlczsgbGluZS1oZWlnaHQ6IDEuNTsgbWF4LXdpZHRoOiAyMDBweDsgdGV4dC1hbGlnbjogY2VudGVyOyB3aWR0aDogMjAwcHg7IiB4bWxucz0iaHR0cDovL3d3dy53My5vcmcvMTk5OS94aHRtbCI+PHNwYW4gY2xhc3M9Im5vZGVMYWJlbCI+PHA+5oq95Yid5aeL5Y2h54mM77yIM+mAoOeJqSsx5p2+6byg77yJPC9wPjwvc3Bhbj48L2Rpdj48L2ZvcmVpZ25PYmplY3Q+PC9nPjwvZz48L2c+PC9nPjxnIHRyYW5zZm9ybT0idHJhbnNsYXRlKDM0MS44NzUsIDI1MykiIGNsYXNzPSJyb290Ij48ZyBjbGFzcz0iY2x1c3RlcnMiPjxnIGRhdGEtbG9vaz0iY2xhc3NpYyIgZGF0YS1pZD0iSW5pdCIgaWQ9IkluaXQiIGNsYXNzPSJzdGF0ZWRpYWdyYW0tc3RhdGUgc3RhdGVkaWFncmFtLWNsdXN0ZXIiPjxnPjxyZWN0IGRhdGEtbG9vaz0iY2xhc3NpYyIgaGVpZ2h0PSIxMTUiIHdpZHRoPSIzNzYiIHk9IjgiIHg9IjgiIGNsYXNzPSJvdXRlciI+PC9yZWN0PjwvZz48ZyB0cmFuc2Zvcm09InRyYW5zbGF0ZSgxODMuNjIxMDkzNzUsIDYpIiBjbGFzcz0iY2x1c3Rlci1sYWJlbCI+PHRleHQgc3R5bGU9IiI+PHRzcGFuIGNsYXNzPSJyb3ciIHg9IjAiIGR5PSIxZW0iIHhtbDpzcGFjZT0icHJlc2VydmUiPkluaXQ8L3RzcGFuPjwvdGV4dD48L2c+PHJlY3QgaGVpZ2h0PSI5MCIgd2lkdGg9IjM3NiIgeT0iMjkiIHg9IjgiIGNsYXNzPSJpbm5lciI+PC9yZWN0PjwvZz48L2c+PGcgY2xhc3M9ImVkZ2VQYXRocyI+PC9nPjxnIGNsYXNzPSJlZGdlTGFiZWxzIj48L2c+PGcgY2xhc3M9Im5vZGVzIj48ZyB0cmFuc2Zvcm09InRyYW5zbGF0ZSgxMTUsIDY1LjUpIiBpZD0ic3RhdGUt5aSE55CG5Y2h54mM6L+b5YyW6YC76L6RLTIiIGNsYXNzPSJub2RlICBzdGF0ZWRpYWdyYW0tc3RhdGUiPjxyZWN0IGhlaWdodD0iNDAiIHdpZHRoPSIxNDQiIHk9Ii0yMCIgeD0iLTcyIiByeT0iNSIgcng9IjUiIHN0eWxlPSIiIGNsYXNzPSJiYXNpYyBsYWJlbC1jb250YWluZXIiPjwvcmVjdD48ZyB0cmFuc2Zvcm09InRyYW5zbGF0ZSgtNjQsIC0xMikiIHN0eWxlPSIiIGNsYXNzPSJsYWJlbCI+PHJlY3Q+PC9yZWN0Pjxmb3JlaWduT2JqZWN0IGhlaWdodD0iMjQiIHdpZHRoPSIxMjgiPjxkaXYgc3R5bGU9ImRpc3BsYXk6IHRhYmxlLWNlbGw7IHdoaXRlLXNwYWNlOiBub3dyYXA7IGxpbmUtaGVpZ2h0OiAxLjU7IG1heC13aWR0aDogMjAwcHg7IHRleHQtYWxpZ246IGNlbnRlcjsiIHhtbG5zPSJodHRwOi8vd3d3LnczLm9yZy8xOTk5L3hodG1sIj48c3BhbiBjbGFzcz0ibm9kZUxhYmVsIj48cD7lpITnkIbljaHniYzov5vljJbpgLvovpE8L3A+PC9zcGFuPjwvZGl2PjwvZm9yZWlnbk9iamVjdD48L2c+PC9nPjxnIHRyYW5zZm9ybT0idHJhbnNsYXRlKDI5MywgNjUuNSkiIGlkPSJzdGF0ZS3liIfmjaLmir3ljaHpmLbmrrUtMiIgY2xhc3M9Im5vZGUgIHN0YXRlZGlhZ3JhbS1zdGF0ZSI+PHJlY3QgaGVpZ2h0PSI0MCIgd2lkdGg9IjExMiIgeT0iLTIwIiB4PSItNTYiIHJ5PSI1IiByeD0iNSIgc3R5bGU9IiIgY2xhc3M9ImJhc2ljIGxhYmVsLWNvbnRhaW5lciI+PC9yZWN0PjxnIHRyYW5zZm9ybT0idHJhbnNsYXRlKC00OCwgLTEyKSIgc3R5bGU9IiIgY2xhc3M9ImxhYmVsIj48cmVjdD48L3JlY3Q+PGZvcmVpZ25PYmplY3QgaGVpZ2h0PSIyNCIgd2lkdGg9Ijk2Ij48ZGl2IHN0eWxlPSJkaXNwbGF5OiB0YWJsZS1jZWxsOyB3aGl0ZS1zcGFjZTogbm93cmFwOyBsaW5lLWhlaWdodDogMS41OyBtYXgtd2lkdGg6IDIwMHB4OyB0ZXh0LWFsaWduOiBjZW50ZXI7IiB4bWxucz0iaHR0cDovL3d3dy53My5vcmcvMTk5OS94aHRtbCI+PHNwYW4gY2xhc3M9Im5vZGVMYWJlbCI+PHA+5YiH5o2i5oq95Y2h6Zi25q61PC9wPjwvc3Bhbj48L2Rpdj48L2ZvcmVpZ25PYmplY3Q+PC9nPjwvZz48L2c+PC9nPjxnIHRyYW5zZm9ybT0idHJhbnNsYXRlKDQwLjYwOTM3NSwgNDQyKSIgY2xhc3M9InJvb3QiPjxnIGNsYXNzPSJjbHVzdGVycyI+PGcgZGF0YS1sb29rPSJjbGFzc2ljIiBkYXRhLWlkPSJEcmF3IiBpZD0iRHJhdyIgY2xhc3M9InN0YXRlZGlhZ3JhbS1zdGF0ZSBzdGF0ZWRpYWdyYW0tY2x1c3RlciI+PGc+PHJlY3QgZGF0YS1sb29rPSJjbGFzc2ljIiBoZWlnaHQ9IjExNSIgd2lkdGg9IjM5Mi43ODEyNSIgeT0iOCIgeD0iOCIgY2xhc3M9Im91dGVyIj48L3JlY3Q+PC9nPjxnIHRyYW5zZm9ybT0idHJhbnNsYXRlKDE4NS42NzE4NzUsIDYpIiBjbGFzcz0iY2x1c3Rlci1sYWJlbCI+PHRleHQgc3R5bGU9IiI+PHRzcGFuIGNsYXNzPSJyb3ciIHg9IjAiIGR5PSIxZW0iIHhtbDpzcGFjZT0icHJlc2VydmUiPkRyYXc8L3RzcGFuPjwvdGV4dD48L2c+PHJlY3QgaGVpZ2h0PSI5MCIgd2lkdGg9IjM5Mi43ODEyNSIgeT0iMjkiIHg9IjgiIGNsYXNzPSJpbm5lciI+PC9yZWN0PjwvZz48L2c+PGcgY2xhc3M9ImVkZ2VQYXRocyI+PC9nPjxnIGNsYXNzPSJlZGdlTGFiZWxzIj48L2c+PGcgY2xhc3M9Im5vZGVzIj48ZyB0cmFuc2Zvcm09InRyYW5zbGF0ZSg5OSwgNjUuNSkiIGlkPSJzdGF0ZS3njqnlrrbmir3ljaHpmLbmrrUtMyIgY2xhc3M9Im5vZGUgIHN0YXRlZGlhZ3JhbS1zdGF0ZSI+PHJlY3QgaGVpZ2h0PSI0MCIgd2lkdGg9IjExMiIgeT0iLTIwIiB4PSItNTYiIHJ5PSI1IiByeD0iNSIgc3R5bGU9IiIgY2xhc3M9ImJhc2ljIGxhYmVsLWNvbnRhaW5lciI+PC9yZWN0PjxnIHRyYW5zZm9ybT0idHJhbnNsYXRlKC00OCwgLTEyKSIgc3R5bGU9IiIgY2xhc3M9ImxhYmVsIj48cmVjdD48L3JlY3Q+PGZvcmVpZ25PYmplY3QgaGVpZ2h0PSIyNCIgd2lkdGg9Ijk2Ij48ZGl2IHN0eWxlPSJkaXNwbGF5OiB0YWJsZS1jZWxsOyB3aGl0ZS1zcGFjZTogbm93cmFwOyBsaW5lLWhlaWdodDogMS41OyBtYXgtd2lkdGg6IDIwMHB4OyB0ZXh0LWFsaWduOiBjZW50ZXI7IiB4bWxucz0iaHR0cDovL3d3dy53My5vcmcvMTk5OS94aHRtbCI+PHNwYW4gY2xhc3M9Im5vZGVMYWJlbCI+PHA+546p5a625oq95Y2h6Zi25q61PC9wPjwvc3Bhbj48L2Rpdj48L2ZvcmVpZ25PYmplY3Q+PC9nPjwvZz48ZyB0cmFuc2Zvcm09InRyYW5zbGF0ZSgyODUuMzkwNjI1LCA2NS41KSIgaWQ9InN0YXRlLTMw56eS5pyq5oq95Y2h5by65Yi257uT5p2fLTMiIGNsYXNzPSJub2RlICBzdGF0ZWRpYWdyYW0tc3RhdGUiPjxyZWN0IGhlaWdodD0iNDAiIHdpZHRoPSIxNjAuNzgxMjUiIHk9Ii0yMCIgeD0iLTgwLjM5MDYyNSIgcnk9IjUiIHJ4PSI1IiBzdHlsZT0iIiBjbGFzcz0iYmFzaWMgbGFiZWwtY29udGFpbmVyIj48L3JlY3Q+PGcgdHJhbnNmb3JtPSJ0cmFuc2xhdGUoLTcyLjM5MDYyNSwgLTEyKSIgc3R5bGU9IiIgY2xhc3M9ImxhYmVsIj48cmVjdD48L3JlY3Q+PGZvcmVpZ25PYmplY3QgaGVpZ2h0PSIyNCIgd2lkdGg9IjE0NC43ODEyNSI+PGRpdiBzdHlsZT0iZGlzcGxheTogdGFibGUtY2VsbDsgd2hpdGUtc3BhY2U6IG5vd3JhcDsgbGluZS1oZWlnaHQ6IDEuNTsgbWF4LXdpZHRoOiAyMDBweDsgdGV4dC1hbGlnbjogY2VudGVyOyIgeG1sbnM9Imh0dHA6Ly93d3cudzMub3JnLzE5OTkveGh0bWwiPjxzcGFuIGNsYXNzPSJub2RlTGFiZWwiPjxwPjMw56eS5pyq5oq95Y2h5by65Yi257uT5p2fPC9wPjwvc3Bhbj48L2Rpdj48L2ZvcmVpZ25PYmplY3Q+PC9nPjwvZz48L2c+PC9nPjxnIHRyYW5zZm9ybT0idHJhbnNsYXRlKDAsIDY5MC41OTk5OTg0NzQxMjExKSIgY2xhc3M9InJvb3QiPjxnIGNsYXNzPSJjbHVzdGVycyI+PGcgZGF0YS1sb29rPSJjbGFzc2ljIiBkYXRhLWlkPSJQbGF5IiBpZD0iUGxheSIgY2xhc3M9InN0YXRlZGlhZ3JhbS1zdGF0ZSBzdGF0ZWRpYWdyYW0tY2x1c3RlciI+PGc+PHJlY3QgZGF0YS1sb29rPSJjbGFzc2ljIiBoZWlnaHQ9IjExNSIgd2lkdGg9IjQ3NCIgeT0iOCIgeD0iOCIgY2xhc3M9Im91dGVyIj48L3JlY3Q+PC9nPjxnIHRyYW5zZm9ybT0idHJhbnNsYXRlKDIyOS40NzY1NjI1LCA2KSIgY2xhc3M9ImNsdXN0ZXItbGFiZWwiPjx0ZXh0IHN0eWxlPSIiPjx0c3BhbiBjbGFzcz0icm93IiB4PSIwIiBkeT0iMWVtIiB4bWw6c3BhY2U9InByZXNlcnZlIj5QbGF5PC90c3Bhbj48L3RleHQ+PC9nPjxyZWN0IGhlaWdodD0iOTAiIHdpZHRoPSI0NzQiIHk9IjI5IiB4PSI4IiBjbGFzcz0iaW5uZXIiPjwvcmVjdD48L2c+PC9nPjxnIGNsYXNzPSJlZGdlUGF0aHMiPjwvZz48ZyBjbGFzcz0iZWRnZUxhYmVscyI+PC9nPjxnIGNsYXNzPSJub2RlcyI+PGcgdHJhbnNmb3JtPSJ0cmFuc2xhdGUoODMsIDY1LjUpIiBpZD0ic3RhdGUt5Ye654mM6Zi25q61LTQiIGNsYXNzPSJub2RlICBzdGF0ZWRpYWdyYW0tc3RhdGUiPjxyZWN0IGhlaWdodD0iNDAiIHdpZHRoPSI4MCIgeT0iLTIwIiB4PSItNDAiIHJ5PSI1IiByeD0iNSIgc3R5bGU9IiIgY2xhc3M9ImJhc2ljIGxhYmVsLWNvbnRhaW5lciI+PC9yZWN0PjxnIHRyYW5zZm9ybT0idHJhbnNsYXRlKC0zMiwgLTEyKSIgc3R5bGU9IiIgY2xhc3M9ImxhYmVsIj48cmVjdD48L3JlY3Q+PGZvcmVpZ25PYmplY3QgaGVpZ2h0PSIyNCIgd2lkdGg9IjY0Ij48ZGl2IHN0eWxlPSJkaXNwbGF5OiB0YWJsZS1jZWxsOyB3aGl0ZS1zcGFjZTogbm93cmFwOyBsaW5lLWhlaWdodDogMS41OyBtYXgtd2lkdGg6IDIwMHB4OyB0ZXh0LWFsaWduOiBjZW50ZXI7IiB4bWxucz0iaHR0cDovL3d3dy53My5vcmcvMTk5OS94aHRtbCI+PHNwYW4gY2xhc3M9Im5vZGVMYWJlbCI+PHA+5Ye654mM6Zi25q61PC9wPjwvc3Bhbj48L2Rpdj48L2ZvcmVpZ25PYmplY3Q+PC9nPjwvZz48ZyB0cmFuc2Zvcm09InRyYW5zbGF0ZSgyMTMsIDY1LjUpIiBpZD0ic3RhdGUt5pS+572u5Y2h54mMLTQiIGNsYXNzPSJub2RlICBzdGF0ZWRpYWdyYW0tc3RhdGUiPjxyZWN0IGhlaWdodD0iNDAiIHdpZHRoPSI4MCIgeT0iLTIwIiB4PSItNDAiIHJ5PSI1IiByeD0iNSIgc3R5bGU9IiIgY2xhc3M9ImJhc2ljIGxhYmVsLWNvbnRhaW5lciI+PC9yZWN0PjxnIHRyYW5zZm9ybT0idHJhbnNsYXRlKC0zMiwgLTEyKSIgc3R5bGU9IiIgY2xhc3M9ImxhYmVsIj48cmVjdD48L3JlY3Q+PGZvcmVpZ25PYmplY3QgaGVpZ2h0PSIyNCIgd2lkdGg9IjY0Ij48ZGl2IHN0eWxlPSJkaXNwbGF5OiB0YWJsZS1jZWxsOyB3aGl0ZS1zcGFjZTogbm93cmFwOyBsaW5lLWhlaWdodDogMS41OyBtYXgtd2lkdGg6IDIwMHB4OyB0ZXh0LWFsaWduOiBjZW50ZXI7IiB4bWxucz0iaHR0cDovL3d3dy53My5vcmcvMTk5OS94aHRtbCI+PHNwYW4gY2xhc3M9Im5vZGVMYWJlbCI+PHA+5pS+572u5Y2h54mMPC9wPjwvc3Bhbj48L2Rpdj48L2ZvcmVpZ25PYmplY3Q+PC9nPjwvZz48ZyB0cmFuc2Zvcm09InRyYW5zbGF0ZSgzNzUsIDY1LjUpIiBpZD0ic3RhdGUt54K55Ye76ZOD6ZOb57uT5p2f5Zue5ZCILTQiIGNsYXNzPSJub2RlICBzdGF0ZWRpYWdyYW0tc3RhdGUiPjxyZWN0IGhlaWdodD0iNDAiIHdpZHRoPSIxNDQiIHk9Ii0yMCIgeD0iLTcyIiByeT0iNSIgcng9IjUiIHN0eWxlPSIiIGNsYXNzPSJiYXNpYyBsYWJlbC1jb250YWluZXIiPjwvcmVjdD48ZyB0cmFuc2Zvcm09InRyYW5zbGF0ZSgtNjQsIC0xMikiIHN0eWxlPSIiIGNsYXNzPSJsYWJlbCI+PHJlY3Q+PC9yZWN0Pjxmb3JlaWduT2JqZWN0IGhlaWdodD0iMjQiIHdpZHRoPSIxMjgiPjxkaXYgc3R5bGU9ImRpc3BsYXk6IHRhYmxlLWNlbGw7IHdoaXRlLXNwYWNlOiBub3dyYXA7IGxpbmUtaGVpZ2h0OiAxLjU7IG1heC13aWR0aDogMjAwcHg7IHRleHQtYWxpZ246IGNlbnRlcjsiIHhtbG5zPSJodHRwOi8vd3d3LnczLm9yZy8xOTk5L3hodG1sIj48c3BhbiBjbGFzcz0ibm9kZUxhYmVsIj48cD7ngrnlh7vpk4Ppk5vnu5PmnZ/lm57lkIg8L3A+PC9zcGFuPjwvZGl2PjwvZm9yZWlnbk9iamVjdD48L2c+PC9nPjwvZz48L2c+PGcgdHJhbnNmb3JtPSJ0cmFuc2xhdGUoNDM0Ljg3NSwgOTIxLjU5OTk5ODQ3NDEyMTEpIiBjbGFzcz0icm9vdCI+PGcgY2xhc3M9ImNsdXN0ZXJzIj48ZyBkYXRhLWxvb2s9ImNsYXNzaWMiIGRhdGEtaWQ9IlJlc29sdmUiIGlkPSJSZXNvbHZlIiBjbGFzcz0ic3RhdGVkaWFncmFtLXN0YXRlIHN0YXRlZGlhZ3JhbS1jbHVzdGVyIj48Zz48cmVjdCBkYXRhLWxvb2s9ImNsYXNzaWMiIGhlaWdodD0iMTE1IiB3aWR0aD0iNDQyIiB5PSI4IiB4PSI4IiBjbGFzcz0ib3V0ZXIiPjwvcmVjdD48L2c+PGcgdHJhbnNmb3JtPSJ0cmFuc2xhdGUoMjAxLjk5NjA5Mzc1LCA2KSIgY2xhc3M9ImNsdXN0ZXItbGFiZWwiPjx0ZXh0IHN0eWxlPSIiPjx0c3BhbiBjbGFzcz0icm93IiB4PSIwIiBkeT0iMWVtIiB4bWw6c3BhY2U9InByZXNlcnZlIj5SZXNvbHZlPC90c3Bhbj48L3RleHQ+PC9nPjxyZWN0IGhlaWdodD0iOTAiIHdpZHRoPSI0NDIiIHk9IjI5IiB4PSI4IiBjbGFzcz0iaW5uZXIiPjwvcmVjdD48L2c+PC9nPjxnIGNsYXNzPSJlZGdlUGF0aHMiPjwvZz48ZyBjbGFzcz0iZWRnZUxhYmVscyI+PC9nPjxnIGNsYXNzPSJub2RlcyI+PGcgdHJhbnNmb3JtPSJ0cmFuc2xhdGUoODMsIDY1LjUpIiBpZD0ic3RhdGUt5pS75Ye757uT566XLTUiIGNsYXNzPSJub2RlICBzdGF0ZWRpYWdyYW0tc3RhdGUiPjxyZWN0IGhlaWdodD0iNDAiIHdpZHRoPSI4MCIgeT0iLTIwIiB4PSItNDAiIHJ5PSI1IiByeD0iNSIgc3R5bGU9IiIgY2xhc3M9ImJhc2ljIGxhYmVsLWNvbnRhaW5lciI+PC9yZWN0PjxnIHRyYW5zZm9ybT0idHJhbnNsYXRlKC0zMiwgLTEyKSIgc3R5bGU9IiIgY2xhc3M9ImxhYmVsIj48cmVjdD48L3JlY3Q+PGZvcmVpZ25PYmplY3QgaGVpZ2h0PSIyNCIgd2lkdGg9IjY0Ij48ZGl2IHN0eWxlPSJkaXNwbGF5OiB0YWJsZS1jZWxsOyB3aGl0ZS1zcGFjZTogbm93cmFwOyBsaW5lLWhlaWdodDogMS41OyBtYXgtd2lkdGg6IDIwMHB4OyB0ZXh0LWFsaWduOiBjZW50ZXI7IiB4bWxucz0iaHR0cDovL3d3dy53My5vcmcvMTk5OS94aHRtbCI+PHNwYW4gY2xhc3M9Im5vZGVMYWJlbCI+PHA+5pS75Ye757uT566XPC9wPjwvc3Bhbj48L2Rpdj48L2ZvcmVpZ25PYmplY3Q+PC9nPjwvZz48ZyB0cmFuc2Zvcm09InRyYW5zbGF0ZSgyMTMsIDY1LjUpIiBpZD0ic3RhdGUt5Lyk5a6z6K6h566XLTUiIGNsYXNzPSJub2RlICBzdGF0ZWRpYWdyYW0tc3RhdGUiPjxyZWN0IGhlaWdodD0iNDAiIHdpZHRoPSI4MCIgeT0iLTIwIiB4PSItNDAiIHJ5PSI1IiByeD0iNSIgc3R5bGU9IiIgY2xhc3M9ImJhc2ljIGxhYmVsLWNvbnRhaW5lciI+PC9yZWN0PjxnIHRyYW5zZm9ybT0idHJhbnNsYXRlKC0zMiwgLTEyKSIgc3R5bGU9IiIgY2xhc3M9ImxhYmVsIj48cmVjdD48L3JlY3Q+PGZvcmVpZ25PYmplY3QgaGVpZ2h0PSIyNCIgd2lkdGg9IjY0Ij48ZGl2IHN0eWxlPSJkaXNwbGF5OiB0YWJsZS1jZWxsOyB3aGl0ZS1zcGFjZTogbm93cmFwOyBsaW5lLWhlaWdodDogMS41OyBtYXgtd2lkdGg6IDIwMHB4OyB0ZXh0LWFsaWduOiBjZW50ZXI7IiB4bWxucz0iaHR0cDovL3d3dy53My5vcmcvMTk5OS94aHRtbCI+PHNwYW4gY2xhc3M9Im5vZGVMYWJlbCI+PHA+5Lyk5a6z6K6h566XPC9wPjwvc3Bhbj48L2Rpdj48L2ZvcmVpZ25PYmplY3Q+PC9nPjwvZz48ZyB0cmFuc2Zvcm09InRyYW5zbGF0ZSgzNTksIDY1LjUpIiBpZD0ic3RhdGUt5pu05paw5Lit5aSu6KGA5p2hLTUiIGNsYXNzPSJub2RlICBzdGF0ZWRpYWdyYW0tc3RhdGUiPjxyZWN0IGhlaWdodD0iNDAiIHdpZHRoPSIxMTIiIHk9Ii0yMCIgeD0iLTU2IiByeT0iNSIgcng9IjUiIHN0eWxlPSIiIGNsYXNzPSJiYXNpYyBsYWJlbC1jb250YWluZXIiPjwvcmVjdD48ZyB0cmFuc2Zvcm09InRyYW5zbGF0ZSgtNDgsIC0xMikiIHN0eWxlPSIiIGNsYXNzPSJsYWJlbCI+PHJlY3Q+PC9yZWN0Pjxmb3JlaWduT2JqZWN0IGhlaWdodD0iMjQiIHdpZHRoPSI5NiI+PGRpdiBzdHlsZT0iZGlzcGxheTogdGFibGUtY2VsbDsgd2hpdGUtc3BhY2U6IG5vd3JhcDsgbGluZS1oZWlnaHQ6IDEuNTsgbWF4LXdpZHRoOiAyMDBweDsgdGV4dC1hbGlnbjogY2VudGVyOyIgeG1sbnM9Imh0dHA6Ly93d3cudzMub3JnLzE5OTkveGh0bWwiPjxzcGFuIGNsYXNzPSJub2RlTGFiZWwiPjxwPuabtOaWsOS4reWkruihgOadoTwvcD48L3NwYW4+PC9kaXY+PC9mb3JlaWduT2JqZWN0PjwvZz48L2c+PC9nPjwvZz48ZyB0cmFuc2Zvcm09InRyYW5zbGF0ZSg0MDIuODc1LCAxMTI4LjE5OTk5Njk0ODI0MjIpIiBjbGFzcz0icm9vdCI+PGcgY2xhc3M9ImNsdXN0ZXJzIj48ZyBkYXRhLWxvb2s9ImNsYXNzaWMiIGRhdGEtaWQ9IkVuZCIgaWQ9IkVuZCIgY2xhc3M9InN0YXRlZGlhZ3JhbS1zdGF0ZSBzdGF0ZWRpYWdyYW0tY2x1c3RlciI+PGc+PHJlY3QgZGF0YS1sb29rPSJjbGFzc2ljIiBoZWlnaHQ9IjExNSIgd2lkdGg9IjUwNiIgeT0iOCIgeD0iOCIgY2xhc3M9Im91dGVyIj48L3JlY3Q+PC9nPjxnIHRyYW5zZm9ybT0idHJhbnNsYXRlKDI0Ny44NDM3NSwgNikiIGNsYXNzPSJjbHVzdGVyLWxhYmVsIj48dGV4dCBzdHlsZT0iIj48dHNwYW4gY2xhc3M9InJvdyIgeD0iMCIgZHk9IjFlbSIgeG1sOnNwYWNlPSJwcmVzZXJ2ZSI+RW5kPC90c3Bhbj48L3RleHQ+PC9nPjxyZWN0IGhlaWdodD0iOTAiIHdpZHRoPSI1MDYiIHk9IjI5IiB4PSI4IiBjbGFzcz0iaW5uZXIiPjwvcmVjdD48L2c+PC9nPjxnIGNsYXNzPSJlZGdlUGF0aHMiPjwvZz48ZyBjbGFzcz0iZWRnZUxhYmVscyI+PC9nPjxnIGNsYXNzPSJub2RlcyI+PGcgdHJhbnNmb3JtPSJ0cmFuc2xhdGUoOTksIDY1LjUpIiBpZD0ic3RhdGUt5pi+56S66IOc6LSf5o+Q56S6LTciIGNsYXNzPSJub2RlICBzdGF0ZWRpYWdyYW0tc3RhdGUiPjxyZWN0IGhlaWdodD0iNDAiIHdpZHRoPSIxMTIiIHk9Ii0yMCIgeD0iLTU2IiByeT0iNSIgcng9IjUiIHN0eWxlPSIiIGNsYXNzPSJiYXNpYyBsYWJlbC1jb250YWluZXIiPjwvcmVjdD48ZyB0cmFuc2Zvcm09InRyYW5zbGF0ZSgtNDgsIC0xMikiIHN0eWxlPSIiIGNsYXNzPSJsYWJlbCI+PHJlY3Q+PC9yZWN0Pjxmb3JlaWduT2JqZWN0IGhlaWdodD0iMjQiIHdpZHRoPSI5NiI+PGRpdiBzdHlsZT0iZGlzcGxheTogdGFibGUtY2VsbDsgd2hpdGUtc3BhY2U6IG5vd3JhcDsgbGluZS1oZWlnaHQ6IDEuNTsgbWF4LXdpZHRoOiAyMDBweDsgdGV4dC1hbGlnbjogY2VudGVyOyIgeG1sbnM9Imh0dHA6Ly93d3cudzMub3JnLzE5OTkveGh0bWwiPjxzcGFuIGNsYXNzPSJub2RlTGFiZWwiPjxwPuaYvuekuuiDnOi0n+aPkOekujwvcD48L3NwYW4+PC9kaXY+PC9mb3JlaWduT2JqZWN0PjwvZz48L2c+PGcgdHJhbnNmb3JtPSJ0cmFuc2xhdGUoMjYxLCA2NS41KSIgaWQ9InN0YXRlLeabtOaWsOWFqOWxgOihgOmHjy03IiBjbGFzcz0ibm9kZSAgc3RhdGVkaWFncmFtLXN0YXRlIj48cmVjdCBoZWlnaHQ9IjQwIiB3aWR0aD0iMTEyIiB5PSItMjAiIHg9Ii01NiIgcnk9IjUiIHJ4PSI1IiBzdHlsZT0iIiBjbGFzcz0iYmFzaWMgbGFiZWwtY29udGFpbmVyIj48L3JlY3Q+PGcgdHJhbnNmb3JtPSJ0cmFuc2xhdGUoLTQ4LCAtMTIpIiBzdHlsZT0iIiBjbGFzcz0ibGFiZWwiPjxyZWN0PjwvcmVjdD48Zm9yZWlnbk9iamVjdCBoZWlnaHQ9IjI0IiB3aWR0aD0iOTYiPjxkaXYgc3R5bGU9ImRpc3BsYXk6IHRhYmxlLWNlbGw7IHdoaXRlLXNwYWNlOiBub3dyYXA7IGxpbmUtaGVpZ2h0OiAxLjU7IG1heC13aWR0aDogMjAwcHg7IHRleHQtYWxpZ246IGNlbnRlcjsiIHhtbG5zPSJodHRwOi8vd3d3LnczLm9yZy8xOTk5L3hodG1sIj48c3BhbiBjbGFzcz0ibm9kZUxhYmVsIj48cD7mm7TmlrDlhajlsYDooYDph488L3A+PC9zcGFuPjwvZGl2PjwvZm9yZWlnbk9iamVjdD48L2c+PC9nPjxnIHRyYW5zZm9ybT0idHJhbnNsYXRlKDQyMywgNjUuNSkiIGlkPSJzdGF0ZS3pmpDol4/miJjmlpflnLrmma8tNyIgY2xhc3M9Im5vZGUgIHN0YXRlZGlhZ3JhbS1zdGF0ZSI+PHJlY3QgaGVpZ2h0PSI0MCIgd2lkdGg9IjExMiIgeT0iLTIwIiB4PSItNTYiIHJ5PSI1IiByeD0iNSIgc3R5bGU9IiIgY2xhc3M9ImJhc2ljIGxhYmVsLWNvbnRhaW5lciI+PC9yZWN0PjxnIHRyYW5zZm9ybT0idHJhbnNsYXRlKC00OCwgLTEyKSIgc3R5bGU9IiIgY2xhc3M9ImxhYmVsIj48cmVjdD48L3JlY3Q+PGZvcmVpZ25PYmplY3QgaGVpZ2h0PSIyNCIgd2lkdGg9Ijk2Ij48ZGl2IHN0eWxlPSJkaXNwbGF5OiB0YWJsZS1jZWxsOyB3aGl0ZS1zcGFjZTogbm93cmFwOyBsaW5lLWhlaWdodDogMS41OyBtYXgtd2lkdGg6IDIwMHB4OyB0ZXh0LWFsaWduOiBjZW50ZXI7IiB4bWxucz0iaHR0cDovL3d3dy53My5vcmcvMTk5OS94aHRtbCI+PHNwYW4gY2xhc3M9Im5vZGVMYWJlbCI+PHA+6ZqQ6JeP5oiY5paX5Zy65pmvPC9wPjwvc3Bhbj48L2Rpdj48L2ZvcmVpZ25PYmplY3Q+PC9nPjwvZz48L2c+PC9nPjxnIHRyYW5zZm9ybT0idHJhbnNsYXRlKDY2My44NzUsIDEzMDkuMTk5OTk2OTQ4MjQyMikiIGlkPSJzdGF0ZS1yb290X2VuZC03IiBjbGFzcz0ibm9kZSBkZWZhdWx0Ij48Zz48cGF0aCBzdHlsZT0iIiBmaWxsPSIjZWVlIiBzdHJva2Utd2lkdGg9IjAiIHN0cm9rZT0ibm9uZSIgZD0iTTcgMCBDNyAwLjQwNTE3OTA4MTIyMjgzNzQ3LCA2Ljk2NDAxMjg4MDE2ODU2MyAwLjgxNjUxMzc0MzEyMTg5OSwgNi44OTM2NTQyNzEwODU0NTYgMS4yMTU1MzcyNDM2Njg1MTIzIEM2LjgyMzI5NTY2MjAwMjM0OSAxLjYxNDU2MDc0NDIxNTEyNTcsIDYuNzE2NDI3NzUyOTMzNzU2IDIuMDEzMzk3MjEwNTU3NzY2LCA2LjU3Nzg0ODM0NTUwMTM1ODYgMi4zOTQxNDEwMDMyNzk2ODEgQzYuNDM5MjY4OTM4MDY4OTYxIDIuNzc0ODg0Nzk2MDAxNTk1NCwgNi4yNjQ3NjczNjcxMDI0OSAzLjE0OTEwNDYyMjU3ODk4NCwgNi4wNjIxNzc4MjY0OTEwNzEgMy40OTk5OTk5OTk5OTk5OTk2IEM1Ljg1OTU4ODI4NTg3OTY1MyAzLjg1MDg5NTM3NzQyMTAxNTMsIDUuNjIyNzU1MTk0OTQ3MDYzIDQuMTg5MTI4MDg0MTY2OTY3LCA1LjM2MjMxMTEwMTgzMjg0NiA0LjQ5OTUxMzI2NzgwNTc3NCBDNS4xMDE4NjcwMDg3MTg2MyA0LjgwOTg5ODQ1MTQ0NDU4MiwgNC44MDk4OTg0NTE0NDQ1ODMgNS4xMDE4NjcwMDg3MTg2MywgNC40OTk1MTMyNjc4MDU3NzUgNS4zNjIzMTExMDE4MzI4NDYgQzQuMTg5MTI4MDg0MTY2OTY4IDUuNjIyNzU1MTk0OTQ3MDYzLCAzLjg1MDg5NTM3NzQyMTAxNjYgNS44NTk1ODgyODU4Nzk2NTIsIDMuNTAwMDAwMDAwMDAwMDAxIDYuMDYyMTc3ODI2NDkxMDcgQzMuMTQ5MTA0NjIyNTc4OTg1IDYuMjY0NzY3MzY3MTAyNDg5LCAyLjc3NDg4NDc5NjAwMTU5NjMgNi40MzkyNjg5MzgwNjg5NjEsIDIuMzk0MTQxMDAzMjc5NjgxNyA2LjU3Nzg0ODM0NTUwMTM1ODYgQzIuMDEzMzk3MjEwNTU3NzY3IDYuNzE2NDI3NzUyOTMzNzU2LCAxLjYxNDU2MDc0NDIxNTEyNjQgNi44MjMyOTU2NjIwMDIzNDksIDEuMjE1NTM3MjQzNjY4NTEyOCA2Ljg5MzY1NDI3MTA4NTQ1NiBDMC44MTY1MTM3NDMxMjE4OTkyIDYuOTY0MDEyODgwMTY4NTYzLCAwLjQwNTE3OTA4MTIyMjgzNzkgNywgNC4yODYyNjM3OTcwMTU3MzZlLTE2IDcgQy0wLjQwNTE3OTA4MTIyMjgzNyA3LCAtMC44MTY1MTM3NDMxMjE4OTg1IDYuOTY0MDEyODgwMTY4NTYzLCAtMS4yMTU1MzcyNDM2Njg1MTIxIDYuODkzNjU0MjcxMDg1NDU2IEMtMS42MTQ1NjA3NDQyMTUxMjU3IDYuODIzMjk1NjYyMDAyMzQ5LCAtMi4wMTMzOTcyMTA1NTc3NjY3IDYuNzE2NDI3NzUyOTMzNzU2LCAtMi4zOTQxNDEwMDMyNzk2ODEgNi41Nzc4NDgzNDU1MDEzNTg2IEMtMi43NzQ4ODQ3OTYwMDE1OTUgNi40MzkyNjg5MzgwNjg5NjEsIC0zLjE0OTEwNDYyMjU3ODk4MyA2LjI2NDc2NzM2NzEwMjQ5LCAtMy40OTk5OTk5OTk5OTk5OTgyIDYuMDYyMTc3ODI2NDkxMDcxIEMtMy44NTA4OTUzNzc0MjEwMTM1IDUuODU5NTg4Mjg1ODc5NjUzLCAtNC4xODkxMjgwODQxNjY5NjYgNS42MjI3NTUxOTQ5NDcwNjM2LCAtNC40OTk1MTMyNjc4MDU3NzMgNS4zNjIzMTExMDE4MzI4NDggQy00LjgwOTg5ODQ1MTQ0NDU4MSA1LjEwMTg2NzAwODcxODYzMiwgLTUuMTAxODY3MDA4NzE4NjI4IDQuODA5ODk4NDUxNDQ0NTg2LCAtNS4zNjIzMTExMDE4MzI4NDM1IDQuNDk5NTEzMjY3ODA1Nzc5IEMtNS42MjI3NTUxOTQ5NDcwNTkgNC4xODkxMjgwODQxNjY5NzEsIC01Ljg1OTU4ODI4NTg3OTY0OSAzLjg1MDg5NTM3NzQyMTAyMDYsIC02LjA2MjE3NzgyNjQ5MTA2OCAzLjUwMDAwMDAwMDAwMDAwNTMgQy02LjI2NDc2NzM2NzEwMjQ4NiAzLjE0OTEwNDYyMjU3ODk5LCAtNi40MzkyNjg5MzgwNjg5NTggMi43NzQ4ODQ3OTYwMDE2MDIsIC02LjU3Nzg0ODM0NTUwMTM1NiAyLjM5NDE0MTAwMzI3OTY4OCBDLTYuNzE2NDI3NzUyOTMzNzU0IDIuMDEzMzk3MjEwNTU3NzczOCwgLTYuODIzMjk1NjYyMDAyMzQ3IDEuNjE0NTYwNzQ0MjE1MTM0LCAtNi44OTM2NTQyNzEwODU0NTQgMS4yMTU1MzcyNDM2Njg1MjEgQy02Ljk2NDAxMjg4MDE2ODU2MTUgMC44MTY1MTM3NDMxMjE5MDgsIC02Ljk5OTk5OTk5OTk5OTk5OSAwLjQwNTE3OTA4MTIyMjg0NzIsIC03IDEuMDE4MzEyNjE2NjI1NDQ2M2UtMTQgQy03LjAwMDAwMDAwMDAwMDAwMSAtMC40MDUxNzkwODEyMjI4MjY4NiwgLTYuOTY0MDEyODgwMTY4NTY1IC0wLjgxNjUxMzc0MzEyMTg4NzgsIC02Ljg5MzY1NDI3MTA4NTQ1OSAtMS4yMTU1MzcyNDM2Njg1MDEgQy02LjgyMzI5NTY2MjAwMjM1MiAtMS42MTQ1NjA3NDQyMTUxMTQyLCAtNi43MTY0Mjc3NTI5MzM3NTkgLTIuMDEzMzk3MjEwNTU3NzU0MiwgLTYuNTc3ODQ4MzQ1NTAxMzYzIC0yLjM5NDE0MTAwMzI3OTY2OSBDLTYuNDM5MjY4OTM4MDY4OTY3IC0yLjc3NDg4NDc5NjAwMTU4MzQsIC02LjI2NDc2NzM2NzEwMjQ5NiAtMy4xNDkxMDQ2MjI1Nzg5NzIsIC02LjA2MjE3NzgyNjQ5MTA3OCAtMy40OTk5OTk5OTk5OTk5ODc2IEMtNS44NTk1ODgyODU4Nzk2NjEgLTMuODUwODk1Mzc3NDIxMDAzMywgLTUuNjIyNzU1MTk0OTQ3MDcxNSAtNC4xODkxMjgwODQxNjY5NTQ1LCAtNS4zNjIzMTExMDE4MzI4NTYgLTQuNDk5NTEzMjY3ODA1NzYzIEMtNS4xMDE4NjcwMDg3MTg2NCAtNC44MDk4OTg0NTE0NDQ1NzEsIC00LjgwOTg5ODQ1MTQ0NDU5NCAtNS4xMDE4NjcwMDg3MTg2MiwgLTQuNDk5NTEzMjY3ODA1Nzg3IC01LjM2MjMxMTEwMTgzMjgzNiBDLTQuMTg5MTI4MDg0MTY2OTc5IC01LjYyMjc1NTE5NDk0NzA1MywgLTMuODUwODk1Mzc3NDIxMDI4IC01Ljg1OTU4ODI4NTg3OTY0MywgLTMuNTAwMDAwMDAwMDAwMDEzMyAtNi4wNjIxNzc4MjY0OTEwNjIgQy0zLjE0OTEwNDYyMjU3ODk5ODUgLTYuMjY0NzY3MzY3MTAyNDgyLCAtMi43NzQ4ODQ3OTYwMDE2MTEgLTYuNDM5MjY4OTM4MDY4OTU0LCAtMi4zOTQxNDEwMDMyNzk2OTczIC02LjU3Nzg0ODM0NTUwMTM1MyBDLTIuMDEzMzk3MjEwNTU3NzgzNSAtNi43MTY0Mjc3NTI5MzM3NTIsIC0xLjYxNDU2MDc0NDIxNTE0MzUgLTYuODIzMjk1NjYyMDAyMzQ1LCAtMS4yMTU1MzcyNDM2Njg1MzA2IC02Ljg5MzY1NDI3MTA4NTQ1MyBDLTAuODE2NTEzNzQzMTIxOTE3NiAtNi45NjQwMTI4ODAxNjg1NjE1LCAtMC40MDUxNzkwODEyMjI4NTY5NSAtNi45OTk5OTk5OTk5OTk5OTksIC0xLjk5Mzc2MjU5NTI4MDczNTJlLTE0IC03IEMwLjQwNTE3OTA4MTIyMjgxNzEgLTcuMDAwMDAwMDAwMDAwMDAxLCAwLjgxNjUxMzc0MzEyMTg3ODEgLTYuOTY0MDEyODgwMTY4NTY1LCAxLjIxNTUzNzI0MzY2ODQ5MTMgLTYuODkzNjU0MjcxMDg1NDYgQzEuNjE0NTYwNzQ0MjE1MTA0NCAtNi44MjMyOTU2NjIwMDIzNTQsIDIuMDEzMzk3MjEwNTU3NzQ1IC02LjcxNjQyNzc1MjkzMzc2MywgMi4zOTQxNDEwMDMyNzk2NTk1IC02LjU3Nzg0ODM0NTUwMTM2NjUgQzIuNzc0ODg0Nzk2MDAxNTc0IC02LjQzOTI2ODkzODA2ODk3LCAzLjE0OTEwNDYyMjU3ODk2MyAtNi4yNjQ3NjczNjcxMDI1LCAzLjQ5OTk5OTk5OTk5OTk3OSAtNi4wNjIxNzc4MjY0OTEwODMgQzMuODUwODk1Mzc3NDIwOTk1MyAtNS44NTk1ODgyODU4Nzk2NjUsIDQuMTg5MTI4MDg0MTY2OTQ3IC01LjYyMjc1NTE5NDk0NzA3NywgNC40OTk1MTMyNjc4MDU3NTYgLTUuMzYyMzExMTAxODMyODYyIEM0LjgwOTg5ODQ1MTQ0NDU2NCAtNS4xMDE4NjcwMDg3MTg2NDc1LCA1LjEwMTg2NzAwODcxODYxMyAtNC44MDk4OTg0NTE0NDQ2MDIsIDUuMzYyMzExMTAxODMyODI5IC00LjQ5OTUxMzI2NzgwNTc5NiBDNS42MjI3NTUxOTQ5NDcwNDYgLTQuMTg5MTI4MDg0MTY2OTg5LCA1Ljg1OTU4ODI4NTg3OTYzNyAtMy44NTA4OTUzNzc0MjEwMzkzLCA2LjA2MjE3NzgyNjQ5MTA1NiAtMy41MDAwMDAwMDAwMDAwMjUgQzYuMjY0NzY3MzY3MTAyNDc1NSAtMy4xNDkxMDQ2MjI1NzkwMTA1LCA2LjQzOTI2ODkzODA2ODk0OSAtMi43NzQ4ODQ3OTYwMDE2MjMsIDYuNTc3ODQ4MzQ1NTAxMzQ4IC0yLjM5NDE0MTAwMzI3OTcwOTIgQzYuNzE2NDI3NzUyOTMzNzQ3IC0yLjAxMzM5NzIxMDU1Nzc5NTUsIDYuODIzMjk1NjYyMDAyMzQyIC0xLjYxNDU2MDc0NDIxNTE1NjIsIDYuODkzNjU0MjcxMDg1NDUxIC0xLjIxNTUzNzI0MzY2ODU0MzQgQzYuOTY0MDEyODgwMTY4NTYgLTAuODE2NTEzNzQzMTIxOTMwNywgNi45ODIyNzU3MTE4NDc1NzUgLTAuMjAyNTg5NTQwNjExNDU2NywgNyAtMy4yODAwNzUwMjA4MzEwNjc1ZS0xNCBDNy4wMTc3MjQyODgxNTI0MjUgMC4yMDI1ODk1NDA2MTEzOTExLCA3LjAxNzcyNDI4ODE1MjQyNCAtMC4yMDI1ODk1NDA2MTE0MjQyLCA3IDAiPjwvcGF0aD48cGF0aCBzdHlsZT0iIiBmaWxsPSJub25lIiBzdHJva2Utd2lkdGg9IjIiIHN0cm9rZT0iIzY2NiIgZD0iTTcgMCBDNyAwLjQwNTE3OTA4MTIyMjgzNzQ3LCA2Ljk2NDAxMjg4MDE2ODU2MyAwLjgxNjUxMzc0MzEyMTg5OSwgNi44OTM2NTQyNzEwODU0NTYgMS4yMTU1MzcyNDM2Njg1MTIzIEM2LjgyMzI5NTY2MjAwMjM0OSAxLjYxNDU2MDc0NDIxNTEyNTcsIDYuNzE2NDI3NzUyOTMzNzU2IDIuMDEzMzk3MjEwNTU3NzY2LCA2LjU3Nzg0ODM0NTUwMTM1ODYgMi4zOTQxNDEwMDMyNzk2ODEgQzYuNDM5MjY4OTM4MDY4OTYxIDIuNzc0ODg0Nzk2MDAxNTk1NCwgNi4yNjQ3NjczNjcxMDI0OSAzLjE0OTEwNDYyMjU3ODk4NCwgNi4wNjIxNzc4MjY0OTEwNzEgMy40OTk5OTk5OTk5OTk5OTk2IEM1Ljg1OTU4ODI4NTg3OTY1MyAzLjg1MDg5NTM3NzQyMTAxNTMsIDUuNjIyNzU1MTk0OTQ3MDYzIDQuMTg5MTI4MDg0MTY2OTY3LCA1LjM2MjMxMTEwMTgzMjg0NiA0LjQ5OTUxMzI2NzgwNTc3NCBDNS4xMDE4NjcwMDg3MTg2MyA0LjgwOTg5ODQ1MTQ0NDU4MiwgNC44MDk4OTg0NTE0NDQ1ODMgNS4xMDE4NjcwMDg3MTg2MywgNC40OTk1MTMyNjc4MDU3NzUgNS4zNjIzMTExMDE4MzI4NDYgQzQuMTg5MTI4MDg0MTY2OTY4IDUuNjIyNzU1MTk0OTQ3MDYzLCAzLjg1MDg5NTM3NzQyMTAxNjYgNS44NTk1ODgyODU4Nzk2NTIsIDMuNTAwMDAwMDAwMDAwMDAxIDYuMDYyMTc3ODI2NDkxMDcgQzMuMTQ5MTA0NjIyNTc4OTg1IDYuMjY0NzY3MzY3MTAyNDg5LCAyLjc3NDg4NDc5NjAwMTU5NjMgNi40MzkyNjg5MzgwNjg5NjEsIDIuMzk0MTQxMDAzMjc5NjgxNyA2LjU3Nzg0ODM0NTUwMTM1ODYgQzIuMDEzMzk3MjEwNTU3NzY3IDYuNzE2NDI3NzUyOTMzNzU2LCAxLjYxNDU2MDc0NDIxNTEyNjQgNi44MjMyOTU2NjIwMDIzNDksIDEuMjE1NTM3MjQzNjY4NTEyOCA2Ljg5MzY1NDI3MTA4NTQ1NiBDMC44MTY1MTM3NDMxMjE4OTkyIDYuOTY0MDEyODgwMTY4NTYzLCAwLjQwNTE3OTA4MTIyMjgzNzkgNywgNC4yODYyNjM3OTcwMTU3MzZlLTE2IDcgQy0wLjQwNTE3OTA4MTIyMjgzNyA3LCAtMC44MTY1MTM3NDMxMjE4OTg1IDYuOTY0MDEyODgwMTY4NTYzLCAtMS4yMTU1MzcyNDM2Njg1MTIxIDYuODkzNjU0MjcxMDg1NDU2IEMtMS42MTQ1NjA3NDQyMTUxMjU3IDYuODIzMjk1NjYyMDAyMzQ5LCAtMi4wMTMzOTcyMTA1NTc3NjY3IDYuNzE2NDI3NzUyOTMzNzU2LCAtMi4zOTQxNDEwMDMyNzk2ODEgNi41Nzc4NDgzNDU1MDEzNTg2IEMtMi43NzQ4ODQ3OTYwMDE1OTUgNi40MzkyNjg5MzgwNjg5NjEsIC0zLjE0OTEwNDYyMjU3ODk4MyA2LjI2NDc2NzM2NzEwMjQ5LCAtMy40OTk5OTk5OTk5OTk5OTgyIDYuMDYyMTc3ODI2NDkxMDcxIEMtMy44NTA4OTUzNzc0MjEwMTM1IDUuODU5NTg4Mjg1ODc5NjUzLCAtNC4xODkxMjgwODQxNjY5NjYgNS42MjI3NTUxOTQ5NDcwNjM2LCAtNC40OTk1MTMyNjc4MDU3NzMgNS4zNjIzMTExMDE4MzI4NDggQy00LjgwOTg5ODQ1MTQ0NDU4MSA1LjEwMTg2NzAwODcxODYzMiwgLTUuMTAxODY3MDA4NzE4NjI4IDQuODA5ODk4NDUxNDQ0NTg2LCAtNS4zNjIzMTExMDE4MzI4NDM1IDQuNDk5NTEzMjY3ODA1Nzc5IEMtNS42MjI3NTUxOTQ5NDcwNTkgNC4xODkxMjgwODQxNjY5NzEsIC01Ljg1OTU4ODI4NTg3OTY0OSAzLjg1MDg5NTM3NzQyMTAyMDYsIC02LjA2MjE3NzgyNjQ5MTA2OCAzLjUwMDAwMDAwMDAwMDAwNTMgQy02LjI2NDc2NzM2NzEwMjQ4NiAzLjE0OTEwNDYyMjU3ODk5LCAtNi40MzkyNjg5MzgwNjg5NTggMi43NzQ4ODQ3OTYwMDE2MDIsIC02LjU3Nzg0ODM0NTUwMTM1NiAyLjM5NDE0MTAwMzI3OTY4OCBDLTYuNzE2NDI3NzUyOTMzNzU0IDIuMDEzMzk3MjEwNTU3NzczOCwgLTYuODIzMjk1NjYyMDAyMzQ3IDEuNjE0NTYwNzQ0MjE1MTM0LCAtNi44OTM2NTQyNzEwODU0NTQgMS4yMTU1MzcyNDM2Njg1MjEgQy02Ljk2NDAxMjg4MDE2ODU2MTUgMC44MTY1MTM3NDMxMjE5MDgsIC02Ljk5OTk5OTk5OTk5OTk5OSAwLjQwNTE3OTA4MTIyMjg0NzIsIC03IDEuMDE4MzEyNjE2NjI1NDQ2M2UtMTQgQy03LjAwMDAwMDAwMDAwMDAwMSAtMC40MDUxNzkwODEyMjI4MjY4NiwgLTYuOTY0MDEyODgwMTY4NTY1IC0wLjgxNjUxMzc0MzEyMTg4NzgsIC02Ljg5MzY1NDI3MTA4NTQ1OSAtMS4yMTU1MzcyNDM2Njg1MDEgQy02LjgyMzI5NTY2MjAwMjM1MiAtMS42MTQ1NjA3NDQyMTUxMTQyLCAtNi43MTY0Mjc3NTI5MzM3NTkgLTIuMDEzMzk3MjEwNTU3NzU0MiwgLTYuNTc3ODQ4MzQ1NTAxMzYzIC0yLjM5NDE0MTAwMzI3OTY2OSBDLTYuNDM5MjY4OTM4MDY4OTY3IC0yLjc3NDg4NDc5NjAwMTU4MzQsIC02LjI2NDc2NzM2NzEwMjQ5NiAtMy4xNDkxMDQ2MjI1Nzg5NzIsIC02LjA2MjE3NzgyNjQ5MTA3OCAtMy40OTk5OTk5OTk5OTk5ODc2IEMtNS44NTk1ODgyODU4Nzk2NjEgLTMuODUwODk1Mzc3NDIxMDAzMywgLTUuNjIyNzU1MTk0OTQ3MDcxNSAtNC4xODkxMjgwODQxNjY5NTQ1LCAtNS4zNjIzMTExMDE4MzI4NTYgLTQuNDk5NTEzMjY3ODA1NzYzIEMtNS4xMDE4NjcwMDg3MTg2NCAtNC44MDk4OTg0NTE0NDQ1NzEsIC00LjgwOTg5ODQ1MTQ0NDU5NCAtNS4xMDE4NjcwMDg3MTg2MiwgLTQuNDk5NTEzMjY3ODA1Nzg3IC01LjM2MjMxMTEwMTgzMjgzNiBDLTQuMTg5MTI4MDg0MTY2OTc5IC01LjYyMjc1NTE5NDk0NzA1MywgLTMuODUwODk1Mzc3NDIxMDI4IC01Ljg1OTU4ODI4NTg3OTY0MywgLTMuNTAwMDAwMDAwMDAwMDEzMyAtNi4wNjIxNzc4MjY0OTEwNjIgQy0zLjE0OTEwNDYyMjU3ODk5ODUgLTYuMjY0NzY3MzY3MTAyNDgyLCAtMi43NzQ4ODQ3OTYwMDE2MTEgLTYuNDM5MjY4OTM4MDY4OTU0LCAtMi4zOTQxNDEwMDMyNzk2OTczIC02LjU3Nzg0ODM0NTUwMTM1MyBDLTIuMDEzMzk3MjEwNTU3NzgzNSAtNi43MTY0Mjc3NTI5MzM3NTIsIC0xLjYxNDU2MDc0NDIxNTE0MzUgLTYuODIzMjk1NjYyMDAyMzQ1LCAtMS4yMTU1MzcyNDM2Njg1MzA2IC02Ljg5MzY1NDI3MTA4NTQ1MyBDLTAuODE2NTEzNzQzMTIxOTE3NiAtNi45NjQwMTI4ODAxNjg1NjE1LCAtMC40MDUxNzkwODEyMjI4NTY5NSAtNi45OTk5OTk5OTk5OTk5OTksIC0xLjk5Mzc2MjU5NTI4MDczNTJlLTE0IC03IEMwLjQwNTE3OTA4MTIyMjgxNzEgLTcuMDAwMDAwMDAwMDAwMDAxLCAwLjgxNjUxMzc0MzEyMTg3ODEgLTYuOTY0MDEyODgwMTY4NTY1LCAxLjIxNTUzNzI0MzY2ODQ5MTMgLTYuODkzNjU0MjcxMDg1NDYgQzEuNjE0NTYwNzQ0MjE1MTA0NCAtNi44MjMyOTU2NjIwMDIzNTQsIDIuMDEzMzk3MjEwNTU3NzQ1IC02LjcxNjQyNzc1MjkzMzc2MywgMi4zOTQxNDEwMDMyNzk2NTk1IC02LjU3Nzg0ODM0NTUwMTM2NjUgQzIuNzc0ODg0Nzk2MDAxNTc0IC02LjQzOTI2ODkzODA2ODk3LCAzLjE0OTEwNDYyMjU3ODk2MyAtNi4yNjQ3NjczNjcxMDI1LCAzLjQ5OTk5OTk5OTk5OTk3OSAtNi4wNjIxNzc4MjY0OTEwODMgQzMuODUwODk1Mzc3NDIwOTk1MyAtNS44NTk1ODgyODU4Nzk2NjUsIDQuMTg5MTI4MDg0MTY2OTQ3IC01LjYyMjc1NTE5NDk0NzA3NywgNC40OTk1MTMyNjc4MDU3NTYgLTUuMzYyMzExMTAxODMyODYyIEM0LjgwOTg5ODQ1MTQ0NDU2NCAtNS4xMDE4NjcwMDg3MTg2NDc1LCA1LjEwMTg2NzAwODcxODYxMyAtNC44MDk4OTg0NTE0NDQ2MDIsIDUuMzYyMzExMTAxODMyODI5IC00LjQ5OTUxMzI2NzgwNTc5NiBDNS42MjI3NTUxOTQ5NDcwNDYgLTQuMTg5MTI4MDg0MTY2OTg5LCA1Ljg1OTU4ODI4NTg3OTYzNyAtMy44NTA4OTUzNzc0MjEwMzkzLCA2LjA2MjE3NzgyNjQ5MTA1NiAtMy41MDAwMDAwMDAwMDAwMjUgQzYuMjY0NzY3MzY3MTAyNDc1NSAtMy4xNDkxMDQ2MjI1NzkwMTA1LCA2LjQzOTI2ODkzODA2ODk0OSAtMi43NzQ4ODQ3OTYwMDE2MjMsIDYuNTc3ODQ4MzQ1NTAxMzQ4IC0yLjM5NDE0MTAwMzI3OTcwOTIgQzYuNzE2NDI3NzUyOTMzNzQ3IC0yLjAxMzM5NzIxMDU1Nzc5NTUsIDYuODIzMjk1NjYyMDAyMzQyIC0xLjYxNDU2MDc0NDIxNTE1NjIsIDYuODkzNjU0MjcxMDg1NDUxIC0xLjIxNTUzNzI0MzY2ODU0MzQgQzYuOTY0MDEyODgwMTY4NTYgLTAuODE2NTEzNzQzMTIxOTMwNywgNi45ODIyNzU3MTE4NDc1NzUgLTAuMjAyNTg5NTQwNjExNDU2NywgNyAtMy4yODAwNzUwMjA4MzEwNjc1ZS0xNCBDNy4wMTc3MjQyODgxNTI0MjUgMC4yMDI1ODk1NDA2MTEzOTExLCA3LjAxNzcyNDI4ODE1MjQyNCAtMC4yMDI1ODk1NDA2MTE0MjQyLCA3IDAiPjwvcGF0aD48Zz48cGF0aCBzdHlsZT0iIiBmaWxsPSIjMDAwIiBzdHJva2Utd2lkdGg9IjAiIHN0cm9rZT0ibm9uZSIgZD0iTTIuNSAwIEMyLjUgMC4xNDQ3MDY4MTQ3MjI0NDE5MywgMi40ODcxNDc0NTcyMDMwNTggMC4yOTE2MTIwNTExMTQ5NjM4NiwgMi40NjIwMTkzODI1MzA1MiAwLjQzNDEyMDQ0NDE2NzMyNTggQzIuNDM2ODkxMzA3ODU3OTgyIDAuNTc2NjI4ODM3MjE5Njg3NywgMi4zOTg3MjQxOTc0NzYzNDE2IDAuNzE5MDcwNDMyMzQyMDU5NSwgMi4zNDkyMzE1NTE5NjQ3NzEzIDAuODU1MDUwMzU4MzE0MTcxOCBDMi4yOTk3Mzg5MDY0NTMyMDEgMC45OTEwMzAyODQyODYyODQsIDIuMjM3NDE2OTE2ODIyMzE3NyAxLjEyNDY4MDIyMjM0OTYzNywgMi4xNjUwNjM1MDk0NjEwOTcgMS4yNDk5OTk5OTk5OTk5OTk4IEMyLjA5MjcxMDEwMjA5OTg3NiAxLjM3NTMxOTc3NzY1MDM2MjUsIDIuMDA4MTI2ODU1MzM4MjM2NSAxLjQ5NjExNzE3MjkxNjc3NCwgMS45MTUxMTExMDc3OTc0NDUgMS42MDY5NjkwMjQyMTYzNDgxIEMxLjgyMjA5NTM2MDI1NjY1MzYgMS43MTc4MjA4NzU1MTU5MjIzLCAxLjcxNzgyMDg3NTUxNTkyMjYgMS44MjIwOTUzNjAyNTY2NTM2LCAxLjYwNjk2OTAyNDIxNjM0ODQgMS45MTUxMTExMDc3OTc0NDUgQzEuNDk2MTE3MTcyOTE2Nzc0MiAyLjAwODEyNjg1NTMzODIzNjUsIDEuMzc1MzE5Nzc3NjUwMzYzIDIuMDkyNzEwMTAyMDk5ODc1NSwgMS4yNTAwMDAwMDAwMDAwMDAyIDIuMTY1MDYzNTA5NDYxMDk2NCBDMS4xMjQ2ODAyMjIzNDk2Mzc1IDIuMjM3NDE2OTE2ODIyMzE3MiwgMC45OTEwMzAyODQyODYyODQ1IDIuMjk5NzM4OTA2NDUzMiwgMC44NTUwNTAzNTgzMTQxNzIxIDIuMzQ5MjMxNTUxOTY0NzcxIEMwLjcxOTA3MDQzMjM0MjA1OTcgMi4zOTg3MjQxOTc0NzYzNDE2LCAwLjU3NjYyODgzNzIxOTY4OCAyLjQzNjg5MTMwNzg1Nzk4MiwgMC40MzQxMjA0NDQxNjczMjYwNCAyLjQ2MjAxOTM4MjUzMDUyIEMwLjI5MTYxMjA1MTExNDk2NCAyLjQ4NzE0NzQ1NzIwMzA1OCwgMC4xNDQ3MDY4MTQ3MjI0NDIxMiAyLjUsIDEuNTMwODA4NDk4OTM0MTkxNmUtMTYgMi41IEMtMC4xNDQ3MDY4MTQ3MjI0NDE4IDIuNSwgLTAuMjkxNjEyMDUxMTE0OTYzOCAyLjQ4NzE0NzQ1NzIwMzA1OCwgLTAuNDM0MTIwNDQ0MTY3MzI1NzYgMi40NjIwMTkzODI1MzA1MiBDLTAuNTc2NjI4ODM3MjE5Njg3NyAyLjQzNjg5MTMwNzg1Nzk4MiwgLTAuNzE5MDcwNDMyMzQyMDU5NSAyLjM5ODcyNDE5NzQ3NjM0MTYsIC0wLjg1NTA1MDM1ODMxNDE3MTggMi4zNDkyMzE1NTE5NjQ3NzEzIEMtMC45OTEwMzAyODQyODYyODQgMi4yOTk3Mzg5MDY0NTMyMDEsIC0xLjEyNDY4MDIyMjM0OTYzNyAyLjIzNzQxNjkxNjgyMjMxNzcsIC0xLjI0OTk5OTk5OTk5OTk5OTYgMi4xNjUwNjM1MDk0NjEwOTcgQy0xLjM3NTMxOTc3NzY1MDM2MiAyLjA5MjcxMDEwMjA5OTg3NiwgLTEuNDk2MTE3MTcyOTE2NzczMyAyLjAwODEyNjg1NTMzODIzNywgLTEuNjA2OTY5MDI0MjE2MzQ3NSAxLjkxNTExMTEwNzc5NzQ0NTkgQy0xLjcxNzgyMDg3NTUxNTkyMTcgMS44MjIwOTUzNjAyNTY2NTQ4LCAtMS44MjIwOTUzNjAyNTY2NTMgMS43MTc4MjA4NzU1MTU5MjM0LCAtMS45MTUxMTExMDc3OTc0NDQzIDEuNjA2OTY5MDI0MjE2MzQ5NSBDLTIuMDA4MTI2ODU1MzM4MjM1NyAxLjQ5NjExNzE3MjkxNjc3NTUsIC0yLjA5MjcxMDEwMjA5OTg3NDYgMS4zNzUzMTk3Nzc2NTAzNjQ1LCAtMi4xNjUwNjM1MDk0NjEwOTU1IDEuMjUwMDAwMDAwMDAwMDAyIEMtMi4yMzc0MTY5MTY4MjIzMTY0IDEuMTI0NjgwMjIyMzQ5NjM5NSwgLTIuMjk5NzM4OTA2NDUzMTk5MiAwLjk5MTAzMDI4NDI4NjI4NjUsIC0yLjM0OTIzMTU1MTk2NDc3IDAuODU1MDUwMzU4MzE0MTc0MyBDLTIuMzk4NzI0MTk3NDc2MzQwNyAwLjcxOTA3MDQzMjM0MjA2MjEsIC0yLjQzNjg5MTMwNzg1Nzk4MSAwLjU3NjYyODgzNzIxOTY5MDcsIC0yLjQ2MjAxOTM4MjUzMDUxOTQgMC40MzQxMjA0NDQxNjczMjkgQy0yLjQ4NzE0NzQ1NzIwMzA1OCAwLjI5MTYxMjA1MTExNDk2NzI0LCAtMi41IDAuMTQ0NzA2ODE0NzIyNDQ1NDUsIC0yLjUgMy42MzY4MzA3NzM2NjIzMDhlLTE1IEMtMi41IC0wLjE0NDcwNjgxNDcyMjQzODE4LCAtMi40ODcxNDc0NTcyMDMwNTg3IC0wLjI5MTYxMjA1MTExNDk1OTksIC0yLjQ2MjAxOTM4MjUzMDUyMDggLTAuNDM0MTIwNDQ0MTY3MzIxOCBDLTIuNDM2ODkxMzA3ODU3OTgzIC0wLjU3NjYyODgzNzIxOTY4MzcsIC0yLjM5ODcyNDE5NzQ3NjM0MyAtMC43MTkwNzA0MzIzNDIwNTUzLCAtMi4zNDkyMzE1NTE5NjQ3NzI2IC0wLjg1NTA1MDM1ODMxNDE2NzUgQy0yLjI5OTczODkwNjQ1MzIwMjMgLTAuOTkxMDMwMjg0Mjg2Mjc5OCwgLTIuMjM3NDE2OTE2ODIyMzIgLTEuMTI0NjgwMjIyMzQ5NjMyOCwgLTIuMTY1MDYzNTA5NDYxMDk5IC0xLjI0OTk5OTk5OTk5OTk5NTYgQy0yLjA5MjcxMDEwMjA5OTg3OCAtMS4zNzUzMTk3Nzc2NTAzNTgzLCAtMi4wMDgxMjY4NTUzMzgyNCAtMS40OTYxMTcxNzI5MTY3Njk1LCAtMS45MTUxMTExMDc3OTc0NDg4IC0xLjYwNjk2OTAyNDIxNjM0NCBDLTEuODIyMDk1MzYwMjU2NjU3NiAtMS43MTc4MjA4NzU1MTU5MTgzLCAtMS43MTc4MjA4NzU1MTU5MjYzIC0xLjgyMjA5NTM2MDI1NjY1LCAtMS42MDY5NjkwMjQyMTYzNTIzIC0xLjkxNTExMTEwNzc5NzQ0MTYgQy0xLjQ5NjExNzE3MjkxNjc3ODQgLTIuMDA4MTI2ODU1MzM4MjMzNCwgLTEuMzc1MzE5Nzc3NjUwMzY3MiAtMi4wOTI3MTAxMDIwOTk4NzI0LCAtMS4yNTAwMDAwMDAwMDAwMDQ3IC0yLjE2NTA2MzUwOTQ2MTA5MzcgQy0xLjEyNDY4MDIyMjM0OTY0MjIgLTIuMjM3NDE2OTE2ODIyMzE1LCAtMC45OTEwMzAyODQyODYyODk3IC0yLjI5OTczODkwNjQ1MzE5OCwgLTAuODU1MDUwMzU4MzE0MTc3NiAtMi4zNDkyMzE1NTE5NjQ3Njg2IEMtMC43MTkwNzA0MzIzNDIwNjU2IC0yLjM5ODcyNDE5NzQ3NjMzOTQsIC0wLjU3NjYyODgzNzIxOTY5NDIgLTIuNDM2ODkxMzA3ODU3OTgwNiwgLTAuNDM0MTIwNDQ0MTY3MzMyMzYgLTIuNDYyMDE5MzgyNTMwNTE5IEMtMC4yOTE2MTIwNTExMTQ5NzA1NyAtMi40ODcxNDc0NTcyMDMwNTc0LCAtMC4xNDQ3MDY4MTQ3MjI0NDg5IC0yLjQ5OTk5OTk5OTk5OTk5OTYsIC03LjEyMDU4MDY5NzQzMTE5OGUtMTUgLTIuNSBDMC4xNDQ3MDY4MTQ3MjI0MzQ2MyAtMi41MDAwMDAwMDAwMDAwMDA0LCAwLjI5MTYxMjA1MTExNDk1NjQ3IC0yLjQ4NzE0NzQ1NzIwMzA1OSwgMC40MzQxMjA0NDQxNjczMTgzIC0yLjQ2MjAxOTM4MjUzMDUyMTcgQzAuNTc2NjI4ODM3MjE5NjgwMiAtMi40MzY4OTEzMDc4NTc5ODQsIDAuNzE5MDcwNDMyMzQyMDUxOCAtMi4zOTg3MjQxOTc0NzYzNDQyLCAwLjg1NTA1MDM1ODMxNDE2NDIgLTIuMzQ5MjMxNTUxOTY0Nzc0IEMwLjk5MTAzMDI4NDI4NjI3NjYgLTIuMjk5NzM4OTA2NDUzMjAzNywgMS4xMjQ2ODAyMjIzNDk2Mjk1IC0yLjIzNzQxNjkxNjgyMjMyMTIsIDEuMjQ5OTk5OTk5OTk5OTkyNSAtMi4xNjUwNjM1MDk0NjExMDEgQzEuMzc1MzE5Nzc3NjUwMzU1NCAtMi4wOTI3MTAxMDIwOTk4ODA0LCAxLjQ5NjExNzE3MjkxNjc2NjggLTIuMDA4MTI2ODU1MzM4MjQyLCAxLjYwNjk2OTAyNDIxNjM0MTIgLTEuOTE1MTExMTA3Nzk3NDUxIEMxLjcxNzgyMDg3NTUxNTkxNTcgLTEuODIyMDk1MzYwMjU2NjYsIDEuODIyMDk1MzYwMjU2NjQ3MiAtMS43MTc4MjA4NzU1MTU5Mjk0LCAxLjkxNTExMTEwNzc5NzQzOSAtMS42MDY5NjkwMjQyMTYzNTU3IEMyLjAwODEyNjg1NTMzODIzMDggLTEuNDk2MTE3MTcyOTE2NzgyLCAyLjA5MjcxMDEwMjA5OTg3IC0xLjM3NTMxOTc3NzY1MDM3MTIsIDIuMTY1MDYzNTA5NDYxMDkxNSAtMS4yNTAwMDAwMDAwMDAwMDg5IEMyLjIzNzQxNjkxNjgyMjMxMyAtMS4xMjQ2ODAyMjIzNDk2NDY2LCAyLjI5OTczODkwNjQ1MzE5NiAtMC45OTEwMzAyODQyODYyOTM5LCAyLjM0OTIzMTU1MTk2NDc2NzMgLTAuODU1MDUwMzU4MzE0MTgyIEMyLjM5ODcyNDE5NzQ3NjMzODUgLTAuNzE5MDcwNDMyMzQyMDcsIDIuNDM2ODkxMzA3ODU3OTc5MiAtMC41NzY2Mjg4MzcyMTk2OTg2LCAyLjQ2MjAxOTM4MjUzMDUxOCAtMC40MzQxMjA0NDQxNjczMzY5IEMyLjQ4NzE0NzQ1NzIwMzA1NyAtMC4yOTE2MTIwNTExMTQ5NzUyMywgMi40OTM2Njk4OTcwODg0MTk3IC0wLjA3MjM1MzQwNzM2MTIzNDU0LCAyLjUgLTEuMTcxNDU1MzY0NTgyNTI0MWUtMTQgQzIuNTA2MzMwMTAyOTExNTgwMyAwLjA3MjM1MzQwNzM2MTIxMTExLCAyLjUwNjMzMDEwMjkxMTU4IC0wLjA3MjM1MzQwNzM2MTIyMjkyLCAyLjUgMCI+PC9wYXRoPjxwYXRoIHN0eWxlPSIiIGZpbGw9Im5vbmUiIHN0cm9rZS13aWR0aD0iMiIgc3Ryb2tlPSIjMDAwIiBkPSJNMi41IDAgQzIuNSAwLjE0NDcwNjgxNDcyMjQ0MTkzLCAyLjQ4NzE0NzQ1NzIwMzA1OCAwLjI5MTYxMjA1MTExNDk2Mzg2LCAyLjQ2MjAxOTM4MjUzMDUyIDAuNDM0MTIwNDQ0MTY3MzI1OCBDMi40MzY4OTEzMDc4NTc5ODIgMC41NzY2Mjg4MzcyMTk2ODc3LCAyLjM5ODcyNDE5NzQ3NjM0MTYgMC43MTkwNzA0MzIzNDIwNTk1LCAyLjM0OTIzMTU1MTk2NDc3MTMgMC44NTUwNTAzNTgzMTQxNzE4IEMyLjI5OTczODkwNjQ1MzIwMSAwLjk5MTAzMDI4NDI4NjI4NCwgMi4yMzc0MTY5MTY4MjIzMTc3IDEuMTI0NjgwMjIyMzQ5NjM3LCAyLjE2NTA2MzUwOTQ2MTA5NyAxLjI0OTk5OTk5OTk5OTk5OTggQzIuMDkyNzEwMTAyMDk5ODc2IDEuMzc1MzE5Nzc3NjUwMzYyNSwgMi4wMDgxMjY4NTUzMzgyMzY1IDEuNDk2MTE3MTcyOTE2Nzc0LCAxLjkxNTExMTEwNzc5NzQ0NSAxLjYwNjk2OTAyNDIxNjM0ODEgQzEuODIyMDk1MzYwMjU2NjUzNiAxLjcxNzgyMDg3NTUxNTkyMjMsIDEuNzE3ODIwODc1NTE1OTIyNiAxLjgyMjA5NTM2MDI1NjY1MzYsIDEuNjA2OTY5MDI0MjE2MzQ4NCAxLjkxNTExMTEwNzc5NzQ0NSBDMS40OTYxMTcxNzI5MTY3NzQyIDIuMDA4MTI2ODU1MzM4MjM2NSwgMS4zNzUzMTk3Nzc2NTAzNjMgMi4wOTI3MTAxMDIwOTk4NzU1LCAxLjI1MDAwMDAwMDAwMDAwMDIgMi4xNjUwNjM1MDk0NjEwOTY0IEMxLjEyNDY4MDIyMjM0OTYzNzUgMi4yMzc0MTY5MTY4MjIzMTcyLCAwLjk5MTAzMDI4NDI4NjI4NDUgMi4yOTk3Mzg5MDY0NTMyLCAwLjg1NTA1MDM1ODMxNDE3MjEgMi4zNDkyMzE1NTE5NjQ3NzEgQzAuNzE5MDcwNDMyMzQyMDU5NyAyLjM5ODcyNDE5NzQ3NjM0MTYsIDAuNTc2NjI4ODM3MjE5Njg4IDIuNDM2ODkxMzA3ODU3OTgyLCAwLjQzNDEyMDQ0NDE2NzMyNjA0IDIuNDYyMDE5MzgyNTMwNTIgQzAuMjkxNjEyMDUxMTE0OTY0IDIuNDg3MTQ3NDU3MjAzMDU4LCAwLjE0NDcwNjgxNDcyMjQ0MjEyIDIuNSwgMS41MzA4MDg0OTg5MzQxOTE2ZS0xNiAyLjUgQy0wLjE0NDcwNjgxNDcyMjQ0MTggMi41LCAtMC4yOTE2MTIwNTExMTQ5NjM4IDIuNDg3MTQ3NDU3MjAzMDU4LCAtMC40MzQxMjA0NDQxNjczMjU3NiAyLjQ2MjAxOTM4MjUzMDUyIEMtMC41NzY2Mjg4MzcyMTk2ODc3IDIuNDM2ODkxMzA3ODU3OTgyLCAtMC43MTkwNzA0MzIzNDIwNTk1IDIuMzk4NzI0MTk3NDc2MzQxNiwgLTAuODU1MDUwMzU4MzE0MTcxOCAyLjM0OTIzMTU1MTk2NDc3MTMgQy0wLjk5MTAzMDI4NDI4NjI4NCAyLjI5OTczODkwNjQ1MzIwMSwgLTEuMTI0NjgwMjIyMzQ5NjM3IDIuMjM3NDE2OTE2ODIyMzE3NywgLTEuMjQ5OTk5OTk5OTk5OTk5NiAyLjE2NTA2MzUwOTQ2MTA5NyBDLTEuMzc1MzE5Nzc3NjUwMzYyIDIuMDkyNzEwMTAyMDk5ODc2LCAtMS40OTYxMTcxNzI5MTY3NzMzIDIuMDA4MTI2ODU1MzM4MjM3LCAtMS42MDY5NjkwMjQyMTYzNDc1IDEuOTE1MTExMTA3Nzk3NDQ1OSBDLTEuNzE3ODIwODc1NTE1OTIxNyAxLjgyMjA5NTM2MDI1NjY1NDgsIC0xLjgyMjA5NTM2MDI1NjY1MyAxLjcxNzgyMDg3NTUxNTkyMzQsIC0xLjkxNTExMTEwNzc5NzQ0NDMgMS42MDY5NjkwMjQyMTYzNDk1IEMtMi4wMDgxMjY4NTUzMzgyMzU3IDEuNDk2MTE3MTcyOTE2Nzc1NSwgLTIuMDkyNzEwMTAyMDk5ODc0NiAxLjM3NTMxOTc3NzY1MDM2NDUsIC0yLjE2NTA2MzUwOTQ2MTA5NTUgMS4yNTAwMDAwMDAwMDAwMDIgQy0yLjIzNzQxNjkxNjgyMjMxNjQgMS4xMjQ2ODAyMjIzNDk2Mzk1LCAtMi4yOTk3Mzg5MDY0NTMxOTkyIDAuOTkxMDMwMjg0Mjg2Mjg2NSwgLTIuMzQ5MjMxNTUxOTY0NzcgMC44NTUwNTAzNTgzMTQxNzQzIEMtMi4zOTg3MjQxOTc0NzYzNDA3IDAuNzE5MDcwNDMyMzQyMDYyMSwgLTIuNDM2ODkxMzA3ODU3OTgxIDAuNTc2NjI4ODM3MjE5NjkwNywgLTIuNDYyMDE5MzgyNTMwNTE5NCAwLjQzNDEyMDQ0NDE2NzMyOSBDLTIuNDg3MTQ3NDU3MjAzMDU4IDAuMjkxNjEyMDUxMTE0OTY3MjQsIC0yLjUgMC4xNDQ3MDY4MTQ3MjI0NDU0NSwgLTIuNSAzLjYzNjgzMDc3MzY2MjMwOGUtMTUgQy0yLjUgLTAuMTQ0NzA2ODE0NzIyNDM4MTgsIC0yLjQ4NzE0NzQ1NzIwMzA1ODcgLTAuMjkxNjEyMDUxMTE0OTU5OSwgLTIuNDYyMDE5MzgyNTMwNTIwOCAtMC40MzQxMjA0NDQxNjczMjE4IEMtMi40MzY4OTEzMDc4NTc5ODMgLTAuNTc2NjI4ODM3MjE5NjgzNywgLTIuMzk4NzI0MTk3NDc2MzQzIC0wLjcxOTA3MDQzMjM0MjA1NTMsIC0yLjM0OTIzMTU1MTk2NDc3MjYgLTAuODU1MDUwMzU4MzE0MTY3NSBDLTIuMjk5NzM4OTA2NDUzMjAyMyAtMC45OTEwMzAyODQyODYyNzk4LCAtMi4yMzc0MTY5MTY4MjIzMiAtMS4xMjQ2ODAyMjIzNDk2MzI4LCAtMi4xNjUwNjM1MDk0NjEwOTkgLTEuMjQ5OTk5OTk5OTk5OTk1NiBDLTIuMDkyNzEwMTAyMDk5ODc4IC0xLjM3NTMxOTc3NzY1MDM1ODMsIC0yLjAwODEyNjg1NTMzODI0IC0xLjQ5NjExNzE3MjkxNjc2OTUsIC0xLjkxNTExMTEwNzc5NzQ0ODggLTEuNjA2OTY5MDI0MjE2MzQ0IEMtMS44MjIwOTUzNjAyNTY2NTc2IC0xLjcxNzgyMDg3NTUxNTkxODMsIC0xLjcxNzgyMDg3NTUxNTkyNjMgLTEuODIyMDk1MzYwMjU2NjUsIC0xLjYwNjk2OTAyNDIxNjM1MjMgLTEuOTE1MTExMTA3Nzk3NDQxNiBDLTEuNDk2MTE3MTcyOTE2Nzc4NCAtMi4wMDgxMjY4NTUzMzgyMzM0LCAtMS4zNzUzMTk3Nzc2NTAzNjcyIC0yLjA5MjcxMDEwMjA5OTg3MjQsIC0xLjI1MDAwMDAwMDAwMDAwNDcgLTIuMTY1MDYzNTA5NDYxMDkzNyBDLTEuMTI0NjgwMjIyMzQ5NjQyMiAtMi4yMzc0MTY5MTY4MjIzMTUsIC0wLjk5MTAzMDI4NDI4NjI4OTcgLTIuMjk5NzM4OTA2NDUzMTk4LCAtMC44NTUwNTAzNTgzMTQxNzc2IC0yLjM0OTIzMTU1MTk2NDc2ODYgQy0wLjcxOTA3MDQzMjM0MjA2NTYgLTIuMzk4NzI0MTk3NDc2MzM5NCwgLTAuNTc2NjI4ODM3MjE5Njk0MiAtMi40MzY4OTEzMDc4NTc5ODA2LCAtMC40MzQxMjA0NDQxNjczMzIzNiAtMi40NjIwMTkzODI1MzA1MTkgQy0wLjI5MTYxMjA1MTExNDk3MDU3IC0yLjQ4NzE0NzQ1NzIwMzA1NzQsIC0wLjE0NDcwNjgxNDcyMjQ0ODkgLTIuNDk5OTk5OTk5OTk5OTk5NiwgLTcuMTIwNTgwNjk3NDMxMTk4ZS0xNSAtMi41IEMwLjE0NDcwNjgxNDcyMjQzNDYzIC0yLjUwMDAwMDAwMDAwMDAwMDQsIDAuMjkxNjEyMDUxMTE0OTU2NDcgLTIuNDg3MTQ3NDU3MjAzMDU5LCAwLjQzNDEyMDQ0NDE2NzMxODMgLTIuNDYyMDE5MzgyNTMwNTIxNyBDMC41NzY2Mjg4MzcyMTk2ODAyIC0yLjQzNjg5MTMwNzg1Nzk4NCwgMC43MTkwNzA0MzIzNDIwNTE4IC0yLjM5ODcyNDE5NzQ3NjM0NDIsIDAuODU1MDUwMzU4MzE0MTY0MiAtMi4zNDkyMzE1NTE5NjQ3NzQgQzAuOTkxMDMwMjg0Mjg2Mjc2NiAtMi4yOTk3Mzg5MDY0NTMyMDM3LCAxLjEyNDY4MDIyMjM0OTYyOTUgLTIuMjM3NDE2OTE2ODIyMzIxMiwgMS4yNDk5OTk5OTk5OTk5OTI1IC0yLjE2NTA2MzUwOTQ2MTEwMSBDMS4zNzUzMTk3Nzc2NTAzNTU0IC0yLjA5MjcxMDEwMjA5OTg4MDQsIDEuNDk2MTE3MTcyOTE2NzY2OCAtMi4wMDgxMjY4NTUzMzgyNDIsIDEuNjA2OTY5MDI0MjE2MzQxMiAtMS45MTUxMTExMDc3OTc0NTEgQzEuNzE3ODIwODc1NTE1OTE1NyAtMS44MjIwOTUzNjAyNTY2NiwgMS44MjIwOTUzNjAyNTY2NDcyIC0xLjcxNzgyMDg3NTUxNTkyOTQsIDEuOTE1MTExMTA3Nzk3NDM5IC0xLjYwNjk2OTAyNDIxNjM1NTcgQzIuMDA4MTI2ODU1MzM4MjMwOCAtMS40OTYxMTcxNzI5MTY3ODIsIDIuMDkyNzEwMTAyMDk5ODcgLTEuMzc1MzE5Nzc3NjUwMzcxMiwgMi4xNjUwNjM1MDk0NjEwOTE1IC0xLjI1MDAwMDAwMDAwMDAwODkgQzIuMjM3NDE2OTE2ODIyMzEzIC0xLjEyNDY4MDIyMjM0OTY0NjYsIDIuMjk5NzM4OTA2NDUzMTk2IC0wLjk5MTAzMDI4NDI4NjI5MzksIDIuMzQ5MjMxNTUxOTY0NzY3MyAtMC44NTUwNTAzNTgzMTQxODIgQzIuMzk4NzI0MTk3NDc2MzM4NSAtMC43MTkwNzA0MzIzNDIwNywgMi40MzY4OTEzMDc4NTc5NzkyIC0wLjU3NjYyODgzNzIxOTY5ODYsIDIuNDYyMDE5MzgyNTMwNTE4IC0wLjQzNDEyMDQ0NDE2NzMzNjkgQzIuNDg3MTQ3NDU3MjAzMDU3IC0wLjI5MTYxMjA1MTExNDk3NTIzLCAyLjQ5MzY2OTg5NzA4ODQxOTcgLTAuMDcyMzUzNDA3MzYxMjM0NTQsIDIuNSAtMS4xNzE0NTUzNjQ1ODI1MjQxZS0xNCBDMi41MDYzMzAxMDI5MTE1ODAzIDAuMDcyMzUzNDA3MzYxMjExMTEsIDIuNTA2MzMwMTAyOTExNTggLTAuMDcyMzUzNDA3MzYxMjIyOTIsIDIuNSAwIj48L3BhdGg+PC9nPjwvZz48L2c+PGcgdHJhbnNmb3JtPSJ0cmFuc2xhdGUoNjYzLjg3NSwgNzU2LjU5OTk5ODQ3NDEyMTEpIiBpZD0ic3RhdGUtUmVzb2x2ZS0tLS1ub3RlLTgiIGNsYXNzPSJub2RlIHN0YXRlZGlhZ3JhbS1ub3RlIj48ZyBjbGFzcz0iYmFzaWMgbGFiZWwtY29udGFpbmVyIj48cGF0aCBzdHlsZT0iIiBmaWxsPSIjNjY2IiBzdHJva2Utd2lkdGg9IjAiIHN0cm9rZT0ibm9uZSIgZD0iTS0xMTEuODc1IC03NSBMMTExLjg3NSAtNzUgTDExMS44NzUgNzUgTC0xMTEuODc1IDc1Ij48L3BhdGg+PHBhdGggc3R5bGU9IiIgZmlsbD0ibm9uZSIgc3Ryb2tlLXdpZHRoPSIxLjMiIHN0cm9rZT0iIzk5OSIgZD0iTS0xMTEuODc1IC03NSBDLTQzLjYyOTkwMDM4NjYwODkyNCAtNzUsIDI0LjYxNTE5OTIyNjc4MjE1MyAtNzUsIDExMS44NzUgLTc1IE0tMTExLjg3NSAtNzUgQy01NC41MDE2NjQzNTgxNjYyNSAtNzUsIDIuODcxNjcxMjgzNjY3NDk2IC03NSwgMTExLjg3NSAtNzUgTTExMS44NzUgLTc1IEMxMTEuODc1IC00MC43Mzc5MzY5NjE2NDYzMDUsIDExMS44NzUgLTYuNDc1ODczOTIzMjkyNjEsIDExMS44NzUgNzUgTTExMS44NzUgLTc1IEMxMTEuODc1IC00NC43NTc5NDY5OTM1MzMyNCwgMTExLjg3NSAtMTQuNTE1ODkzOTg3MDY2NDcsIDExMS44NzUgNzUgTTExMS44NzUgNzUgQzU3LjQ1OTk1MjE3OTE5OTQzIDc1LCAzLjA0NDkwNDM1ODM5ODg2NyA3NSwgLTExMS44NzUgNzUgTTExMS44NzUgNzUgQzI5LjU5MTE3NTA0NjUzOTA1IDc1LCAtNTIuNjkyNjQ5OTA2OTIxOSA3NSwgLTExMS44NzUgNzUgTS0xMTEuODc1IDc1IEMtMTExLjg3NSAzMC4yMDQ0Nzg1ODUyMzM5NTcsIC0xMTEuODc1IC0xNC41OTEwNDI4Mjk1MzIwODYsIC0xMTEuODc1IC03NSBNLTExMS44NzUgNzUgQy0xMTEuODc1IDQzLjE3NDgzMjcyOTcwNjc4LCAtMTExLjg3NSAxMS4zNDk2NjU0NTk0MTM1NSwgLTExMS44NzUgLTc1Ij48L3BhdGg+PC9nPjxnIHRyYW5zZm9ybT0idHJhbnNsYXRlKC05Ni44NzUsIC02MCkiIHN0eWxlPSIiIGNsYXNzPSJsYWJlbCI+PHJlY3Q+PC9yZWN0Pjxmb3JlaWduT2JqZWN0IGhlaWdodD0iMTIwIiB3aWR0aD0iMTkzLjc1Ij48ZGl2IHN0eWxlPSJkaXNwbGF5OiB0YWJsZS1jZWxsOyB3aGl0ZS1zcGFjZTogbm93cmFwOyBsaW5lLWhlaWdodDogMS41OyBtYXgtd2lkdGg6IDIwMHB4OyB0ZXh0LWFsaWduOiBjZW50ZXI7IiB4bWxucz0iaHR0cDovL3d3dy53My5vcmcvMTk5OS94aHRtbCI+PHNwYW4gY2xhc3M9Im5vZGVMYWJlbCI+PHA+57uT566X6YC76L6R77yaPGJyLz4xLiDmo4Dmn6Xpo57ooYwv5r2c5rC0562J5Y2w6K6wPGJyLz4yLiDorqHnrpfmuqLlh7rkvKTlrrM8YnIvPjMuIOabtOaWsHNjcmVlbkhQPGJyLz40LiDop6blj5FlbmRQaGFzZSgp57uI5q2i5p2h5Lu2PC9wPjwvc3Bhbj48L2Rpdj48L2ZvcmVpZ25PYmplY3Q+PC9nPjwvZz48L2c+PC9nPjwvZz48L3N2Zz4=;" vertex="1" parent="1">
            <mxGeometry x="-90" y="-40" width="936.078125" height="1324.199951171875" as="geometry" />
          </mxCell>
        </UserObject>
      </root>
    </mxGraphModel>
  </diagram>
</mxfile>
